<svg width="72" height="72" viewBox="0 0 72 72" fill="none" xmlns="http://www.w3.org/2000/svg">
    <rect width="72" height="72" fill="black" fill-opacity="0"/>
    <path d="M13.8696 66.9999L15.9804 57.5011C15.9804 57.5011 9.99972 49.0578 9.99972 43.4289C9.99972 37.8 9.64791 29.0048 19.1467 26.894C28.6455 24.7832 43.3541 23.7434 45.1804 32.8747C46.2358 38.1518 44.4767 43.4289 44.4767 43.4289C44.4767 43.4289 46.5876 47.2988 49.0502 50.1132C48.6984 51.5204 45.5322 52.2241 45.5322 52.2241L44.1249 58.2048C44.1249 58.2048 43.4213 60.6674 41.3105 61.0192C39.1997 61.371 30.0527 61.0192 25.831 58.2048" stroke="#D82121" stroke-linecap="round" stroke-linejoin="round"/>
    <path d="M33.2188 66.6482L33.9224 61.0193" stroke="#D82121" stroke-linecap="round" stroke-linejoin="round"/>
    <path fill-rule="evenodd" clip-rule="evenodd" d="M20.2014 43.7809C19.146 45.5399 13.8689 44.1327 15.2761 41.3182C13.1652 41.3182 12.4616 33.5785 17.3869 32.5231C18.0905 28.6532 26.1821 26.5424 29.7001 29.3568C32.5146 27.246 38.8471 27.9496 39.9025 31.1159C43.0688 31.1159 44.1242 36.7448 41.3098 38.152C41.3098 41.3182 39.5507 42.3737 37.0881 40.9664C36.0327 42.7255 32.8664 44.4845 30.7556 42.3737C29.7001 44.1327 24.7749 47.6508 20.2014 43.7809Z" stroke="#D82121" stroke-linecap="round" stroke-linejoin="round"/>
    <path d="M17.3877 32.5229C17.3877 32.5229 24.072 32.5229 24.072 36.041" stroke="#D82121" stroke-linecap="round" stroke-linejoin="round"/>
    <path d="M20.2017 43.7808C19.1463 40.6145 19.1463 39.2073 20.2017 38.5037" stroke="#D82121" stroke-linecap="round" stroke-linejoin="round"/>
    <path d="M30.0519 29.3567C29.3483 34.282 31.4591 34.6338 31.4591 34.6338" stroke="#D82121" stroke-linecap="round" stroke-linejoin="round"/>
    <path d="M41.3098 38.1519C39.9026 38.1519 37.7917 38.1519 36.7363 36.041" stroke="#D82121" stroke-linecap="round" stroke-linejoin="round"/>
    <path fill-rule="evenodd" clip-rule="evenodd" d="M34.437 14.7093L31.1925 14.0038L33.7261 11.8576L33.3944 8.55392L36.2184 10.3003L39.258 8.96394L38.4698 12.1894L40.6799 14.6672L37.3688 14.9143L35.6952 17.782L34.437 14.7093Z" stroke="#D82121" stroke-linecap="round" stroke-linejoin="round"/>
    <path d="M61.5 8C61.5 8 64.5 7 65.5 3.5" stroke="#D82121" stroke-linecap="round" stroke-linejoin="round"/>
    <path d="M54 36C54 36 57 36.5 58.5 34" stroke="#D82121" stroke-linecap="round" stroke-linejoin="round"/>
    <path d="M61.0455 47.6773C61.0455 47.6773 63.2892 49.7306 65.9088 48.4509" stroke="#D82121" stroke-linecap="round" stroke-linejoin="round"/>
    <path fill-rule="evenodd" clip-rule="evenodd" d="M67.4941 22.8503L66.4098 28.6207L61.9997 24.9201L67.4941 22.8503Z" stroke="#D82121" stroke-linecap="round" stroke-linejoin="round"/>
    <path fill-rule="evenodd" clip-rule="evenodd" d="M53.5 20C55.433 20 57 18.433 57 16.5C57 14.567 55.433 13 53.5 13C51.567 13 50 14.567 50 16.5C50 18.433 51.567 20 53.5 20Z" stroke="#D82121"/>
</svg>
