<svg width="72" height="72" viewBox="0 0 72 72" fill="none" xmlns="http://www.w3.org/2000/svg">
    <rect width="72" height="72" fill="black" fill-opacity="0"/>
    <path fill-rule="evenodd" clip-rule="evenodd" d="M47.3742 5.74083C46.2027 4.56925 44.3032 4.56925 43.1316 5.74083L4.59429 44.2781C3.42272 45.4497 3.42272 47.3492 4.59429 48.5208L22.6255 66.552C23.7971 67.7236 25.6966 67.7236 26.8682 66.552L65.4055 28.0147C66.577 26.8431 66.577 24.9436 65.4055 23.772L47.3742 5.74083Z" stroke="#D82121" stroke-linecap="round" stroke-linejoin="round"/>
    <path d="M39.5966 9.27644L61.8705 31.5503" stroke="#D82121" stroke-linecap="round" stroke-linejoin="round"/>
    <path d="M9.89739 38.9749L32.1712 61.2488" stroke="#D82121" stroke-linecap="round" stroke-linejoin="round"/>
    <path fill-rule="evenodd" clip-rule="evenodd" d="M14.8474 55.2384C16.019 56.4099 17.9185 56.4099 19.0901 55.2384C20.2616 54.0668 20.2616 52.1673 19.0901 50.9957C17.9185 49.8241 16.019 49.8241 14.8474 50.9957C13.6759 52.1673 13.6759 54.0668 14.8474 55.2384Z" stroke="#D82121" stroke-linecap="round" stroke-linejoin="round"/>
    <path d="M50.203 14.2261L56.2135 20.2366" stroke="#D82121" stroke-linecap="round" stroke-linejoin="round"/>
    <path d="M36.8564 28.0505L38.914 25.9929L46.1843 33.2631L44.7498 34.6976" stroke="#D82121" stroke-linecap="round" stroke-linejoin="round"/>
    <path d="M36.4269 44.0791L34.2997 46.2063L26.5 38.4066L35 30" stroke="#D82121" stroke-linecap="round" stroke-linejoin="round"/>
    <path d="M33.5001 32L37.5001 35.5C37.5001 35.5 39.563 30.7503 36.7816 28.1251C34.0001 25.5 30.9182 27.0819 29.5001 28.5C28.082 29.9182 27.1726 33 29.3364 35.5C31.5001 38 35.5001 37.5 35.5001 37.5" stroke="#D82121" stroke-linecap="round" stroke-linejoin="round"/>
</svg>
