<svg width="72" height="72" viewBox="0 0 72 72" fill="none" xmlns="http://www.w3.org/2000/svg">
    <rect width="72" height="72" fill="black" fill-opacity="0"/>
    <path fill-rule="evenodd" clip-rule="evenodd" d="M4 46.5V49.5H67.002V46.5H4Z" stroke="#D82121" stroke-linecap="round" stroke-linejoin="round"/>
    <path d="M17.5 49.5C17.5 49.5 23.75 58 25.75 59C27.75 60 34 61 34 61L33 69" stroke="#D82121" stroke-linecap="round" stroke-linejoin="round"/>
    <path d="M42.5 68.5C42.5 68 42.5 59.5 42.5 59.5C42.5 59.5 46.5 55.5 47.5 50" stroke="#D82121" stroke-linecap="round" stroke-linejoin="round"/>
    <path d="M43 49.5C41.5 51 40.5 53.5 40 54C34.5 52.5 27.5 53 27.5 53C27.5 53 25.5 50.5 23.5 49.5" stroke="#D82121" stroke-linecap="round" stroke-linejoin="round"/>
    <path fill-rule="evenodd" clip-rule="evenodd" d="M14.5 19.5C13.3954 19.5 12.5 20.3954 12.5 21.5V40.5C12.5 41.6046 13.3954 42.5 14.5 42.5H52.5C53.6046 42.5 54.5 41.6046 54.5 40.5V21.5C54.5 20.3954 53.6046 19.5 52.5 19.5H14.5Z" stroke="#D82121" stroke-linecap="round" stroke-linejoin="round"/>
    <path d="M54.5 26.5C54.8704 26.5 60.1787 22.6593 62.9065 20.6677C63.5689 20.1841 64.5 20.6588 64.5 21.479V39.5793C64.5 40.3884 63.5893 40.8625 62.9265 40.3986L54.5 34.5" stroke="#D82121" stroke-linecap="round" stroke-linejoin="round"/>
    <path fill-rule="evenodd" clip-rule="evenodd" d="M24 36C26.7614 36 29 33.7614 29 31C29 28.2386 26.7614 26 24 26C21.2386 26 19 28.2386 19 31C19 33.7614 21.2386 36 24 36Z" stroke="#D82121" stroke-linecap="round" stroke-linejoin="round"/>
    <path fill-rule="evenodd" clip-rule="evenodd" d="M43 36C45.7614 36 48 33.7614 48 31C48 28.2386 45.7614 26 43 26C40.2386 26 38 28.2386 38 31C38 33.7614 40.2386 36 43 36Z" stroke="#D82121" stroke-linecap="round" stroke-linejoin="round"/>
    <path d="M46.5 19.5V14.5C46.5 14.5 46.5 11.5 43.5 11.5C40.5 11.5 40.5 11.5 40.5 11.5" stroke="#D82121" stroke-linecap="round" stroke-linejoin="round"/>
    <rect x="21.5" y="9.5" width="19" height="4" rx="0.5" stroke="#D82121" stroke-linecap="round" stroke-linejoin="round"/>
    <path d="M16.5 42.5V46.5" stroke="#D82121" stroke-linecap="round" stroke-linejoin="round"/>
    <path d="M20.5 42.5V46.5" stroke="#D82121" stroke-linecap="round" stroke-linejoin="round"/>
    <path d="M46.5 42.5V46.5" stroke="#D82121" stroke-linecap="round" stroke-linejoin="round"/>
    <path d="M50.5 42.5V46.5" stroke="#D82121" stroke-linecap="round" stroke-linejoin="round"/>
</svg>
