<svg width="60" height="73" viewBox="0 0 60 73" fill="none" xmlns="http://www.w3.org/2000/svg">
    <rect width="60" height="72.8571" fill="black" fill-opacity="0"/>
    <path d="M57.7173 27.4671L29.7973 10.124L1.90186 27.4526L29.7973 45.2909L57.7173 27.4671Z" stroke="#D82121" stroke-linecap="round" stroke-linejoin="round"/>
    <path d="M11.25 36.9346V54.137C11.25 54.137 18.75 64.762 29.5833 64.762C40.4167 64.762 47.9167 54.137 47.9167 54.137V36.9346" stroke="#D82121" stroke-linecap="round" stroke-linejoin="round"/>
    <path d="M54.5833 52.113H52.9167C52.9167 52.113 50.8941 55.2796 51.1299 57.8562C51.3656 60.4328 52.514 61.2202 53.75 61.2202C54.986 61.2202 56.0379 59.8235 56.218 57.8562C56.398 55.8889 54.5833 52.113 54.5833 52.113Z" stroke="#D82121" stroke-linecap="round" stroke-linejoin="round"/>
    <path d="M53.75 52.1132V32.887" stroke="#D82121" stroke-linecap="round" stroke-linejoin="round"/>
    <path d="M14.5833 40.9822V52.6191" stroke="#D82121" stroke-linecap="round" stroke-linejoin="round"/>
    <path d="M32.0833 38.4523L50 26.8154" stroke="#D82121" stroke-linecap="round" stroke-linejoin="round"/>
</svg>
