<svg width="72" height="72" viewBox="0 0 72 72" fill="none" xmlns="http://www.w3.org/2000/svg">
    <rect width="72" height="72" fill="black" fill-opacity="0"/>
    <path d="M69.2607 27.144L35.7568 10.005L2.28223 27.1297L35.7568 44.7581L69.2607 27.144Z" stroke="#D82121" stroke-linecap="round" stroke-linejoin="round"/>
    <path d="M13.5 36.5V53.5C13.5 53.5 22.5 64 35.5 64C48.5 64 57.5 53.5 57.5 53.5V36.5" stroke="#D82121" stroke-linecap="round" stroke-linejoin="round"/>
    <path d="M65.5001 51.5H63.5001C63.5001 51.5 61.073 54.6293 61.356 57.1756C61.6389 59.7219 63.0169 60.5 64.5001 60.5C65.9833 60.5 67.2456 59.1198 67.4617 57.1756C67.6777 55.2314 65.5001 51.5 65.5001 51.5Z" stroke="#D82121" stroke-linecap="round" stroke-linejoin="round"/>
    <path d="M64.5 51.5V32.5" stroke="#D82121" stroke-linecap="round" stroke-linejoin="round"/>
    <path d="M17.5 40.5V52" stroke="#D82121" stroke-linecap="round" stroke-linejoin="round"/>
    <path d="M38.5 38L60 26.5" stroke="#D82121" stroke-linecap="round" stroke-linejoin="round"/>
</svg>
