<svg width="24" height="24" viewBox="0 0 24 24" fill="none" xmlns="http://www.w3.org/2000/svg">
    <rect width="24" height="24" fill="black" fill-opacity="0"/>
    <path d="M17.25 2.625H14.25C11.2185 2.625 9.375 4.0975 9.375 7.125V9.375H6.75C6.51556 9.375 6.375 9.55997 6.375 9.78812V13.4621C6.375 13.6902 6.51577 13.875 6.75 13.875H9.375V21.375C9.375 22.0871 9.75 22.125 10.125 22.125H13.125C13.3594 22.125 13.875 22.125 13.875 21.375V13.875H16.5C16.7344 13.875 16.9243 13.6902 16.9243 13.4621V9.75C16.9243 9.64045 16.9243 9.375 16.5 9.375H13.875V7.5C13.875 6.75 13.875 6.375 15 6.375H17.25C17.4842 6.375 17.625 6.22794 17.625 6V3C17.625 2.77227 17.484 2.62542 17.25 2.625Z" stroke="#D82121" stroke-linecap="round" stroke-linejoin="round"/>
</svg>
