<svg width="35" height="32" viewBox="0 0 35 32" fill="none" xmlns="http://www.w3.org/2000/svg">
    <rect width="34.6408" height="32" fill="black" fill-opacity="0" transform="translate(0.320435)"/>
    <path d="M25.2185 3.5H20.8884C16.5128 3.5 13.8519 5.46333 13.8519 9.5V12.5H10.0631C9.72473 12.5 9.52185 12.7466 9.52185 13.0508V17.9495C9.52185 18.2537 9.72504 18.5 10.0631 18.5H13.8519V28.5C13.8519 29.4495 14.3932 29.5 14.9345 29.5H19.2646C19.603 29.5 20.3471 29.5 20.3471 28.5V18.5H24.1359C24.4743 18.5 24.7483 18.2537 24.7483 17.9495V13C24.7483 12.8539 24.7483 12.5 24.1359 12.5H20.3471V10C20.3471 9 20.3471 8.5 21.9709 8.5H25.2185C25.5565 8.5 25.7597 8.30392 25.7597 8V4C25.7597 3.69636 25.5562 3.50056 25.2185 3.5Z" stroke="white" stroke-linecap="round" stroke-linejoin="round"/>
</svg>
