<svg width="71" height="111" viewBox="0 0 71 111" fill="none" xmlns="http://www.w3.org/2000/svg">
    <path fill-rule="evenodd" clip-rule="evenodd" d="M28.2335 3.75439C27.6358 4.24316 27.5 4.92822 27.5 6.04248V11.3296L27.4983 11.354L27.494 11.3745L27.4877 11.3936L27.4795 11.4116L27.4695 11.4287C27.462 11.4409 27.4532 11.4521 27.4433 11.4624L27.4195 11.4844L27.3987 11.4995C27.3817 11.5107 27.3634 11.52 27.3442 11.5273C27.3173 11.5371 27.2888 11.543 27.2604 11.543C24.4922 11.562 21.4951 11.8867 19.063 12.7373C18.9228 12.7866 18.7781 12.6855 18.7781 12.5376V6.78662C18.7781 5.1167 18.4434 3.91602 17.7761 3.18408C17.1078 2.45508 16.1769 1.89746 14.9825 1.51514C13.9427 1.18213 13.1695 1.02051 12.6628 1.02881C12.5454 1.03076 12.4524 0.930664 12.4524 0.814453V0.214844C12.4524 0.0957031 12.5494 0 12.6687 0H64.25C65 0 65 0.755371 64.9996 0.755371L64.9791 14.8481C64.9946 15.1084 64.6171 15.1636 64.555 14.9102C63.4525 10.4165 61.7076 7.52441 59 5.28711C56.8205 3.46924 52.5509 3.02148 47 3.02148H30.5C29.5855 3.02148 28.8297 3.26611 28.2335 3.75439ZM58.7346 64.083C56.837 65.8457 52.7623 66.4683 47 66.4683H30.5C29.5149 66.4683 28.967 66.4683 28.2335 65.7129C27.5 64.9575 27.5 64.2021 27.5 63.4468V37.0107L48.1866 37.083C48.5417 37.083 48.8336 36.7944 48.8301 36.4414C48.8023 33.7314 48.4303 31.2256 47.7188 28.9214C46.6984 25.6191 44.9773 22.7319 42.5502 20.2651C38.3558 16.0034 33.329 13.8472 27.4742 13.7876L27.3582 13.7847C27.3096 13.7832 27.261 13.7817 27.2117 13.7817C24.0789 13.7817 21.1814 14.29 18.5161 15.2979C15.8676 16.3613 13.4629 17.981 11.3053 20.166C7.10144 24.4224 5 29.4492 5 35.2446C5 41.4395 7.07608 46.6226 11.2292 50.7954C12.9666 52.5415 14.3987 53.624 15.7244 54.314C16.1546 54.5381 16.6692 54.2295 16.6692 53.7471V45.5234C16.6692 45.3813 16.6458 45.2417 16.6015 45.1094C16.5403 44.9263 16.4391 44.7568 16.3047 44.6133C14.263 42.4268 13.6658 41.0625 12.9373 37.083C12.9373 37.083 12.6757 32.4692 13.8418 30.1772C15.0079 27.8857 16.5927 25.5732 18.5161 24.1733C20.8905 22.5464 23.7885 21.731 27.2117 21.731L27.3384 21.7324L27.4742 21.7349C32.6398 21.8154 36.6045 24.4219 39.3652 29.5571C39.5164 29.8374 39.0703 30.2129 38.75 30.2129H27.5V24.1704C23.75 24.1704 20.75 25.6807 18.5161 27.1914V63.4468C18.5161 65.1182 18.5 67.2231 17.75 67.9785C17 68.7339 16.25 69.4893 15.5 69.4893C14.75 69.4893 12.9908 69.5591 12.5 69.4893V71H65L64.9996 53.4321C65.0165 53.0933 64.5366 53.0044 64.4322 53.3276C64.2932 53.7559 64.1347 54.2202 63.9564 54.7207L63.8549 55.0034L63.7615 55.2607L63.5839 55.7422C62.2477 59.541 60.6321 62.3218 58.7346 64.083ZM40.6675 43.5278C40.3427 43.2852 39.8878 43.3408 39.6222 43.6465C36.4129 47.3398 33.0439 49.0605 29.3205 49.2051C29.2772 49.2065 29.306 54.6392 29.317 56.4785C29.3185 56.8018 29.6014 57.0581 29.9261 57.0283C36.756 56.4028 41.5406 53.9302 46.02 48.4277C46.2681 48.123 46.2085 47.6699 45.8932 47.4341L40.6675 43.5278ZM1.79001 94.6919H6.53V96H0.230011V87.6001H6.362V88.9082H1.79001V91.0923H5.84601V92.376H1.79001V94.6919ZM9.83002 88.9082H14.402V87.6001H8.27002V96H9.83002V92.7842H13.886V91.4639H9.83002V88.9082ZM23.09 96H21.41L19.694 93.54C19.586 93.5522 19.478 93.5522 19.37 93.5522H17.474V96H15.914V87.6001H19.37C21.578 87.6001 22.946 88.728 22.946 90.5879C22.946 91.8599 22.298 92.7959 21.158 93.2402L23.09 96ZM19.298 88.9199C20.666 88.9199 21.374 89.5317 21.374 90.5879C21.374 91.644 20.666 92.2681 19.298 92.2681H17.474V88.9199H19.298ZM26.246 94.6919H30.986V96H24.686V87.6001H30.818V88.9082H26.246V91.0923H30.302V92.376H26.246V94.6919ZM40.442 96H41.918L41.906 87.6001H40.622L37.346 93.168L34.01 87.6001H32.726V96H34.214V90.5039L36.974 95.04H37.67L40.43 90.4321L40.442 96ZM48.11 96.1201C45.506 96.1201 43.586 94.2842 43.586 91.7998C43.586 89.3159 45.506 87.48 48.11 87.48C50.714 87.48 52.634 89.3042 52.634 91.7998C52.634 94.2959 50.714 96.1201 48.11 96.1201ZM51.062 91.8003C51.062 93.5161 49.802 94.752 48.11 94.752C46.418 94.752 45.158 93.5161 45.158 91.8003C45.158 90.084 46.418 88.8481 48.11 88.8481C49.802 88.8481 51.062 90.084 51.062 91.8003ZM60.41 87.6001H61.97L58.31 96H56.774L53.102 87.6001H54.794L57.59 94.0801L60.41 87.6001ZM68.486 94.0562L69.326 96H70.958L67.166 87.6001H65.63L61.85 96H63.458L64.286 94.0562H68.486ZM64.814 92.832H67.97L66.386 89.1602L64.814 92.832ZM21.542 109.692H16.802V107.376H20.858V106.092H16.802V103.908H21.374V102.6H15.242V111H21.542V109.692ZM29.402 102.6H30.962L27.302 111H25.766L22.094 102.6H23.786L26.582 109.08L29.402 102.6ZM38.33 109.692H33.59V107.376H37.646V106.092H33.59V103.908H38.162V102.6H32.03V111H38.33V109.692ZM45.986 102.6H47.534V111H46.25L41.618 105.312V111H40.07V102.6H41.354L45.986 108.288V102.6ZM51.494 103.92V111H53.054V103.92H55.838V102.6H48.71V103.92H51.494Z" fill="url(#paint0_linear)"/>
    <defs>
        <linearGradient id="paint0_linear" x1="-42.9312" y1="3.51959" x2="39.6406" y2="142.313" gradientUnits="userSpaceOnUse">
            <stop stop-color="#D82121"/>
            <stop offset="0.665059" stop-color="#A72344"/>
            <stop offset="1" stop-color="#902A2A"/>
        </linearGradient>
    </defs>
</svg>
