<svg width="24" height="24" viewBox="0 0 24 24" fill="none" xmlns="http://www.w3.org/2000/svg">
    <g opacity="0.5">
        <rect width="24" height="24" fill="black" fill-opacity="0"/>
        <rect width="13.5" height="21" fill="black" fill-opacity="0" transform="translate(4.875 1.5)"/>
        <path d="M10.5183 16.6934C8.77544 16.5346 7.20396 16.1596 5.85853 15.2403C5.69159 15.126 5.51923 15.0157 5.36689 14.888C4.778 14.3939 4.71866 13.828 5.18464 13.2448C5.58328 12.7458 6.25246 12.6123 6.94802 12.8988C7.0827 12.9544 7.21103 13.0237 7.33394 13.0982C9.84138 14.6033 13.286 14.6448 15.8028 13.1658C16.0522 12.9988 16.3187 12.8626 16.6276 12.7931C17.2283 12.6584 17.7885 12.8511 18.1108 13.3102C18.4791 13.8346 18.4744 14.3464 18.0206 14.7534C17.3246 15.3775 16.4875 15.829 15.5575 16.1442C14.678 16.442 13.7147 16.592 12.7613 16.6916C12.9052 16.8283 12.973 16.8956 13.063 16.9746C14.3575 18.1109 15.6578 19.2424 16.9481 20.3822C17.3877 20.7706 17.4795 21.2521 17.2375 21.7039C16.9728 22.1975 16.3804 22.5223 15.7995 22.4876C15.4315 22.4654 15.1445 22.3053 14.8895 22.0809C13.9125 21.2221 12.9172 20.3791 11.9601 19.5041C11.6815 19.2496 11.5475 19.2978 11.3017 19.5187C10.3189 20.4026 9.32006 21.2729 8.31535 22.1383C7.8642 22.5269 7.32735 22.5968 6.80415 22.3749C6.24799 22.1393 5.89409 21.6434 5.9214 21.145C5.94024 20.8078 6.13002 20.5503 6.39492 20.3193C7.67607 19.2017 8.95368 18.0813 10.2318 16.9618C10.3163 16.8874 10.3952 16.8084 10.5183 16.6934Z" stroke="white" stroke-linecap="round" stroke-linejoin="round"/>
        <path d="M11.7726 12.375L11.7708 12.875H11.7708L11.7726 12.375ZM6.37509 6.92556L6.87508 6.92843L6.87508 6.9284L6.37509 6.92556ZM17.2501 7.00808L17.7501 7.01071L17.7501 7.01057L17.2501 7.00808ZM11.838 1.50002L11.8366 2.00002L11.8366 2.00002L11.838 1.50002ZM14.3502 6.93215L14.8502 6.93059L14.8502 6.93024L14.3502 6.93215ZM11.8155 4.39992L11.815 4.89992H11.8151L11.8155 4.39992ZM11.8287 9.47487L11.827 8.97488H11.8269L11.8287 9.47487ZM9.27499 6.96242L8.77501 6.9662L8.77501 6.96625L9.27499 6.96242ZM11.7743 11.875C9.07596 11.8657 6.85958 9.62812 6.87508 6.92843L5.8751 6.92269C5.85642 10.1751 8.51894 12.8638 11.7708 12.875L11.7743 11.875ZM16.7501 7.00545C16.736 9.69415 14.5094 11.8844 11.7743 11.875L11.7708 12.875C15.0465 12.8862 17.733 10.2619 17.7501 7.01071L16.7501 7.00545ZM11.8366 2.00002C14.5661 2.00732 16.7639 4.23718 16.7501 7.00559L17.7501 7.01057C17.7666 3.69841 15.1313 1.00883 11.8393 1.00002L11.8366 2.00002ZM6.87508 6.9284C6.89061 4.19418 9.10853 1.99248 11.8366 2.00002L11.8394 1.00002C8.55865 0.990959 5.89375 3.63887 5.8751 6.92272L6.87508 6.9284ZM14.8502 6.93024C14.8438 5.24681 13.4989 3.90138 11.816 3.89992L11.8151 4.89992C12.9456 4.9009 13.8459 5.79913 13.8502 6.93406L14.8502 6.93024ZM11.8304 9.97487C13.5136 9.96903 14.8554 8.6145 14.8502 6.93059L13.8502 6.93371C13.8537 8.06719 12.9563 8.97096 11.827 8.97488L11.8304 9.97487ZM8.77501 6.96625C8.78787 8.64779 10.1469 9.98099 11.8305 9.97487L11.8269 8.97488C10.6892 8.97901 9.78359 8.08467 9.77498 6.9586L8.77501 6.96625ZM11.816 3.89992C10.1188 3.89817 8.76217 5.26744 8.77501 6.9662L9.77498 6.95865C9.76633 5.81366 10.6753 4.89875 11.815 4.89992L11.816 3.89992Z" fill="white"/>
    </g>
</svg>
