<svg width="72" height="72" viewBox="0 0 72 72" fill="none" xmlns="http://www.w3.org/2000/svg">
    <rect width="72" height="72" fill="black" fill-opacity="0"/>
    <path d="M67.0275 33.3701C68.6292 34.9718 67.9016 37.198 66.5 39L45.6957 60.5C37.2478 68.5 21.1524 72.2583 10 62.5C6 59 2.5 51 2.5 46.5C2.5 39.0701 4.5 35 8 27C11.5 19 16.2944 10.5 19 10.5C22 10.5 23.5 13.5 22 17.5C20.5 21.5 17.5378 28.4984 17.5378 28.4984L39.941 6.49316C41.5428 4.89136 43.6957 4.10169 45.6957 6.10169C47.6957 8.10169 46.5496 9.8982 44.9478 11.5C44.9478 11.5 31 26.5 32.5 28C34 29.5 54.5235 7.89382 54.5235 7.89382C56.1253 6.29202 58.6979 5.69793 60.5 7.5C62.1017 9.10169 61.3674 11.801 59.7655 13.4027C59.7655 13.4027 39 32.0862 40.5 33.7931C42 35.5 60.5 19 60.5 19C62.1018 17.3982 63.9346 16.7885 65.7367 18.5906C67.3385 20.1924 67.1086 22.405 65.5068 24.0068C65.5068 24.0068 47 41 48 42.5C49 44 61.2931 33.7931 61.2931 33.7931C62.8949 32.1913 65.2254 31.568 67.0275 33.3701Z" stroke="#D82121" stroke-linecap="round" stroke-linejoin="round"/>
    <path d="M23.5 31C23.5 31 29 37.5 28 49" stroke="#D82121" stroke-linecap="round" stroke-linejoin="round"/>
    <path d="M22.5 7.5L22 2" stroke="#D82121" stroke-linecap="round" stroke-linejoin="round"/>
    <path d="M29 9.5L32 3.5" stroke="#D82121" stroke-linecap="round" stroke-linejoin="round"/>
</svg>
