<svg width="60" height="73" viewBox="0 0 60 73" fill="none" xmlns="http://www.w3.org/2000/svg">
    <rect width="60" height="72.8571" fill="black" fill-opacity="0"/>
    <path d="M55.8562 33.7674C57.191 35.3881 56.5847 37.6409 55.4167 39.4643L38.0797 61.2203C31.0399 69.3155 17.627 73.1186 8.33334 63.2441C5.00001 59.7024 2.08334 51.6072 2.08334 47.0536C2.08334 39.5353 3.75001 35.4167 6.66668 27.3215C9.58334 19.2262 13.5787 10.625 15.8333 10.625C18.3333 10.625 19.5833 13.6608 18.3333 17.7084C17.0833 21.756 14.6149 28.8377 14.6149 28.8377L33.2842 6.5705C34.619 4.94963 36.4131 4.15056 38.0797 6.17437C39.7464 8.19818 38.7914 10.0161 37.4565 11.6369C37.4565 11.6369 25.8333 26.8155 27.0833 28.3334C28.3333 29.8512 45.4363 7.98784 45.4363 7.98784C46.7711 6.36697 48.915 5.7658 50.4167 7.58933C51.7514 9.21009 51.1395 11.9415 49.8046 13.5623C49.8046 13.5623 32.5 32.4682 33.75 34.1954C35 35.9227 50.4167 19.2262 50.4167 19.2262C51.7515 17.6054 53.2789 16.9884 54.7806 18.8119C56.1154 20.4328 55.9239 22.6718 54.589 24.2927C54.589 24.2927 39.1667 41.4881 40 43.006C40.8333 44.5238 51.0776 34.1954 51.0776 34.1954C52.4124 32.5746 54.3545 31.9439 55.8562 33.7674Z" stroke="#D82121" stroke-linecap="round" stroke-linejoin="round"/>
    <path d="M19.5833 31.369C19.5833 31.369 24.1667 37.9464 23.3333 49.5833" stroke="#D82121" stroke-linecap="round" stroke-linejoin="round"/>
    <path d="M18.75 7.58928L18.3333 2.0238" stroke="#D82121" stroke-linecap="round" stroke-linejoin="round"/>
    <path d="M24.1667 9.61305L26.6667 3.54163" stroke="#D82121" stroke-linecap="round" stroke-linejoin="round"/>
</svg>
