<svg width="72" height="72" viewBox="0 0 72 72" fill="none" xmlns="http://www.w3.org/2000/svg">
    <rect width="72" height="72" fill="black" fill-opacity="0"/>
    <rect width="26.5" height="54.3572" fill="black" fill-opacity="0" transform="translate(24 8.4187)"/>
    <path fill-rule="evenodd" clip-rule="evenodd" d="M35.5 29C31.9101 29 29 26.0899 29 22.5C29 18.9101 31.9101 16 35.5 16C39.0899 16 42 18.9101 42 22.5C42 26.0899 39.0899 29 35.5 29Z" stroke="#D82121" stroke-linecap="round" stroke-linejoin="round"/>
    <path d="M36.9997 31C38.9997 37.0478 37.9997 46.0478 37.9997 46.0478" stroke="#D82121" stroke-linecap="round" stroke-linejoin="round"/>
    <path d="M38.0102 46.3556C38.0102 46.3556 44.2187 50.1256 44.5254 53.2729C44.832 56.4203 43.4697 60.3108 44.8353 61.3447C46.2008 62.3787 47.2725 61.9016 47.2725 61.9016" stroke="#D82121" stroke-linecap="round" stroke-linejoin="round"/>
    <path d="M37.8145 46.1616C37.8145 46.1616 29.2396 46.611 28.6056 49.7091C27.9716 52.8071 28.9198 56.8187 27.4537 57.7042C25.9875 58.5898 24.9716 58.0033 24.9716 58.0033" stroke="#D82121" stroke-linecap="round" stroke-linejoin="round"/>
    <path d="M38 33.0329C47 34.5 50.5 26 50.5 26" stroke="#D82121" stroke-linecap="round" stroke-linejoin="round"/>
    <path d="M37.5 33C37.5 33 27.5 36 24 29" stroke="#D82121" stroke-linecap="round" stroke-linejoin="round"/>
    <path fill-rule="evenodd" clip-rule="evenodd" d="M39.2011 9.2228L40.4893 16.419L34.4874 14.8109L39.2011 9.2228Z" stroke="#D82121" stroke-linecap="round" stroke-linejoin="round"/>
    <rect width="17" height="30.888" fill="black" fill-opacity="0" transform="translate(65 31) scale(-1 1)"/>
    <path fill-rule="evenodd" clip-rule="evenodd" d="M57.5 40C59.9853 40 62 37.9853 62 35.5C62 33.0147 59.9853 31 57.5 31C55.0147 31 53 33.0147 53 35.5C53 37.9853 55.0147 40 57.5 40Z" stroke="#D82121" stroke-linecap="round" stroke-linejoin="round"/>
    <path d="M56 41C54.5 45.019 55.25 51 55.25 51" stroke="#D82121" stroke-linecap="round" stroke-linejoin="round"/>
    <path d="M54.6526 50.9228C54.6526 50.9228 58.535 53.5578 58.8035 55.6313C59.072 57.7048 58.3424 60.2226 59.2016 60.9366C60.0608 61.6506 60.7017 61.3652 60.7017 61.3652" stroke="#D82121" stroke-linecap="round" stroke-linejoin="round"/>
    <path d="M55.5176 50.7368C55.5176 50.7368 61.0051 51.1305 61.4467 53.1605C61.8882 55.1905 61.329 57.7984 62.2767 58.3937C63.2244 58.989 63.8671 58.618 63.8671 58.618" stroke="#D82121" stroke-linecap="round" stroke-linejoin="round"/>
    <path d="M56 42.851C50.24 43.863 48 38 48 38" stroke="#D82121" stroke-linecap="round" stroke-linejoin="round"/>
    <path d="M56 42.449C56 42.449 62.6667 44.2857 65 40" stroke="#D82121" stroke-linecap="round" stroke-linejoin="round"/>
    <path fill-rule="evenodd" clip-rule="evenodd" d="M58.437 13.4026L55.1925 12.6971L57.7261 10.551L57.3944 7.24728L60.2184 8.99361L63.258 7.6573L62.4698 10.8827L64.6799 13.3606L61.3688 13.6076L59.6952 16.4753L58.437 13.4026Z" stroke="#D82121" stroke-linecap="round" stroke-linejoin="round"/>
    <rect width="17" height="36" fill="black" fill-opacity="0" transform="translate(24 27) scale(-1 1)"/>
    <path fill-rule="evenodd" clip-rule="evenodd" d="M15 37C12.2386 37 10 34.7614 10 32C10 29.2386 12.2386 27 15 27C17.7614 27 20 29.2386 20 32C20 34.7614 17.7614 37 15 37Z" stroke="#D82121" stroke-linecap="round" stroke-linejoin="round"/>
    <path d="M18 37C18 37 20 41.8 18 49" stroke="#D82121" stroke-linecap="round" stroke-linejoin="round"/>
    <path d="M18 48.5C18 48.5 14.0653 53.1176 15.2545 55.5882C16.4437 58.0588 19.8056 60.5294 18.8222 61.7647C17.8388 63 16.4437 63 16.4437 63" stroke="#D82121" stroke-linecap="round" stroke-linejoin="round"/>
    <path d="M18 48.5C18 48.5 12.4871 46.9869 12.1026 50.97C11.7181 54.9532 12.5349 58.2694 11.4297 59.1783C10.3246 60.0872 9.38959 59.7282 9.38959 59.7282" stroke="#D82121" stroke-linecap="round" stroke-linejoin="round"/>
    <path d="M18.4944 38C18.4944 38 24.7865 38.3655 23.8876 41.4921C22.9888 44.6188 14.5 45 14.5 45" stroke="#D82121" stroke-linecap="round" stroke-linejoin="round"/>
    <path d="M18 37.8933C18 37.8933 9 43 7 32" stroke="#D82121" stroke-linecap="round" stroke-linejoin="round"/>
    <rect x="13" y="7" width="6" height="6" rx="3" transform="rotate(30 13 7)" stroke="#D82121" stroke-linecap="round" stroke-linejoin="round"/>
    <path fill-rule="evenodd" clip-rule="evenodd" d="M33.4941 63.8503L32.4098 69.6207L27.9997 65.9201L33.4941 63.8503Z" stroke="#D82121" stroke-linecap="round" stroke-linejoin="round"/>
</svg>
