<svg width="72" height="72" viewBox="0 0 72 72" fill="none" xmlns="http://www.w3.org/2000/svg">
    <rect width="72" height="72" fill="black" fill-opacity="0"/>
    <path d="M70 30L70.3277 30.3776C70.4746 30.2502 70.5342 30.0492 70.4807 29.8623C70.4271 29.6754 70.27 29.5364 70.078 29.5061L70 30ZM59.2971 22.6204L58.9154 22.9434L58.9154 22.9434L59.2971 22.6204ZM64.3136 38.2229L63.877 37.9793V37.9793L64.3136 38.2229ZM6.02771 36.5049L5.59652 36.758L5.59652 36.758L6.02771 36.5049ZM2 30.5L1.82444 30.0318C1.66609 30.0912 1.54849 30.2266 1.51186 30.3917C1.47524 30.5568 1.52456 30.7293 1.64296 30.85L2 30.5ZM11.4301 23.2708L11.0722 22.9216L11.0722 22.9216L11.4301 23.2708ZM22 16L22.0921 16.4914L22.0921 16.4914L22 16ZM31.3245 16.6183L31.4893 16.1462L31.4893 16.1462L31.3245 16.6183ZM35.8395 17.5415L35.8393 18.0415H35.8397L35.8395 17.5415ZM40.5411 16.4387L40.365 15.9707L40.365 15.9707L40.5411 16.4387ZM51 16L50.8509 16.4772V16.4772L51 16ZM54 34.1199L54.272 34.5395C54.4309 34.4364 54.518 34.2525 54.4969 34.0643C54.4758 33.8761 54.3502 33.716 54.1725 33.6506L54 34.1199ZM41.202 32.9443L41.3961 33.4051L41.3961 33.4051L41.202 32.9443ZM32.562 32.9442L32.7749 32.4918L32.7749 32.4918L32.562 32.9442ZM19.5 34.1199L19.784 33.7084C19.7005 33.6508 19.6015 33.6199 19.5 33.6199V34.1199ZM70.078 29.5061C65.1356 28.7257 62.4451 25.5673 59.6788 22.2975L58.9154 22.9434C61.6626 26.1906 64.5695 29.6487 69.922 30.4939L70.078 29.5061ZM64.7502 38.4665C66.6429 35.0745 68.2792 32.1554 70.3277 30.3776L69.6723 29.6224C67.4623 31.5403 65.7394 34.6415 63.877 37.9793L64.7502 38.4665ZM35.8234 58C44.8052 58 50.8596 55.2672 55.2676 51.4279C59.6557 47.6061 62.3827 42.7097 64.7502 38.4665L63.877 37.9793C61.4989 42.2412 58.8479 46.9834 54.6108 50.6738C50.3937 54.3468 44.5758 57 35.8234 57V58ZM5.59652 36.758C10.4996 45.11 18.0428 58 35.8234 58V57C18.6633 57 11.3795 44.6335 6.4589 36.2517L5.59652 36.758ZM1.64296 30.85C2.84197 32.0731 4.07739 34.1703 5.59652 36.758L6.4589 36.2517C4.96802 33.7122 3.66316 31.4822 2.35704 30.15L1.64296 30.85ZM11.0722 22.9216C8.24243 25.8215 5.44877 28.6727 1.82444 30.0318L2.17556 30.9682C6.04488 29.5172 8.98999 26.4873 11.7879 23.62L11.0722 22.9216ZM21.9079 15.5086C17.4714 16.3404 14.2397 19.6756 11.0722 22.9216L11.7879 23.62C15.0088 20.3193 18.0222 17.2545 22.0921 16.4914L21.9079 15.5086ZM31.4893 16.1462C30.4174 15.772 29.2696 15.3701 27.7617 15.1867C26.2528 15.0032 24.4052 15.0403 21.9079 15.5086L22.0921 16.4914C24.5089 16.0383 26.252 16.0105 27.641 16.1794C29.0311 16.3484 30.0885 16.7164 31.1597 17.0903L31.4893 16.1462ZM35.8397 17.0415C34.0584 17.0408 32.8309 16.6146 31.4893 16.1462L31.1597 17.0903C32.5094 17.5616 33.8755 18.0408 35.8393 18.0415L35.8397 17.0415ZM40.365 15.9707C38.8633 16.536 37.5099 17.0409 35.8393 17.0415L35.8397 18.0415C37.716 18.0408 39.2292 17.4667 40.7173 16.9066L40.365 15.9707ZM51.1491 15.5228C48.5521 14.7112 46.5169 14.5664 44.7848 14.7608C43.0598 14.9544 41.6607 15.483 40.365 15.9707L40.7173 16.9066C42.0191 16.4166 43.3106 15.9325 44.8963 15.7545C46.4748 15.5774 48.3702 15.702 50.8509 16.4772L51.1491 15.5228ZM59.6788 22.2975C57.3621 19.5589 54.974 16.718 51.1491 15.5228L50.8509 16.4772C54.3565 17.5728 56.5703 20.1714 58.9154 22.9434L59.6788 22.2975ZM54 34.1199C53.728 33.7004 53.728 33.7004 53.728 33.7004C53.728 33.7004 53.7279 33.7004 53.7278 33.7005C53.7276 33.7006 53.7273 33.7009 53.7268 33.7012C53.7258 33.7018 53.7242 33.7029 53.722 33.7043C53.7176 33.7071 53.7109 33.7114 53.7018 33.7172C53.6838 33.7288 53.6565 33.7462 53.6204 33.769C53.5482 33.8147 53.4406 33.8821 53.3007 33.9682C53.0208 34.1404 52.6116 34.3871 52.0971 34.6836C51.0676 35.2766 49.6185 36.0673 47.9406 36.8576C44.5666 38.4469 40.3385 40 36.7502 40V41C40.5715 41 44.9683 39.3631 48.3668 37.7623C50.0752 36.9576 51.5492 36.1533 52.5963 35.5501C53.12 35.2483 53.5375 34.9966 53.8247 34.8199C53.9683 34.7316 54.0794 34.6619 54.155 34.6141C54.1927 34.5903 54.2216 34.5718 54.2412 34.5592C54.2511 34.553 54.2586 34.5481 54.2637 34.5448C54.2663 34.5432 54.2683 34.5419 54.2696 34.541C54.2703 34.5405 54.2709 34.5402 54.2713 34.5399C54.2715 34.5398 54.2717 34.5397 54.2718 34.5396C54.2719 34.5395 54.272 34.5395 54 34.1199ZM45 32.5C46.5388 32.5 48.7285 33.0106 50.5742 33.5405C51.4882 33.803 52.3029 34.0656 52.889 34.2626C53.1819 34.3611 53.4174 34.4431 53.5793 34.5003C53.6602 34.5289 53.7227 34.5513 53.7647 34.5664C53.7858 34.574 53.8017 34.5798 53.8122 34.5836C53.8175 34.5856 53.8214 34.587 53.824 34.5879C53.8253 34.5884 53.8262 34.5887 53.8268 34.589C53.8271 34.5891 53.8273 34.5891 53.8274 34.5892C53.8275 34.5892 53.8275 34.5892 53.8275 34.5892C53.8275 34.5892 53.8275 34.5892 54 34.1199C54.1725 33.6506 54.1724 33.6506 54.1723 33.6506C54.1723 33.6505 54.1722 33.6505 54.1721 33.6505C54.1718 33.6504 54.1715 33.6503 54.1711 33.6501C54.1703 33.6498 54.1691 33.6494 54.1676 33.6488C54.1646 33.6477 54.1602 33.6461 54.1545 33.644C54.143 33.6399 54.1261 33.6337 54.1041 33.6258C54.0601 33.6099 53.9956 33.5868 53.9125 33.5574C53.7463 33.4987 53.5059 33.415 53.2076 33.3147C52.6113 33.1143 51.782 32.8469 50.8501 32.5794C49.0039 32.0493 46.6936 31.5 45 31.5V32.5ZM41.3961 33.4051C42.5368 32.9247 43.5548 32.5 45 32.5V31.5C43.3339 31.5 42.1505 32.0023 41.008 32.4835L41.3961 33.4051ZM36.7502 34.5C38.8017 34.5 40.1579 33.9264 41.3961 33.4051L41.008 32.4834C39.7864 32.9978 38.588 33.5 36.7502 33.5V34.5ZM32.3491 33.3966C33.4656 33.9221 34.6911 34.5 36.7502 34.5V33.5C34.9195 33.5 33.8591 33.0021 32.7749 32.4918L32.3491 33.3966ZM29 32.5C30.4371 32.5 31.3357 32.9197 32.3491 33.3966L32.7749 32.4918C31.7453 32.0073 30.6742 31.5 29 31.5V32.5ZM19.5 33.6199C19.5158 33.6199 19.5514 33.6206 19.5958 33.6293C19.6234 33.6348 19.745 33.6589 19.8523 33.7666C19.8987 33.8204 19.9693 33.9525 19.9897 34.0288C19.9976 34.1016 19.985 34.232 19.9687 34.2876C19.9296 34.3969 19.8629 34.4615 19.8456 34.4783C19.8005 34.5217 19.7575 34.5458 19.7527 34.5486C19.739 34.5566 19.7284 34.5618 19.7244 34.5638C19.7121 34.5697 19.7091 34.5703 19.7288 34.5627C19.7605 34.5505 19.8171 34.5301 19.8997 34.5016C20.0629 34.4455 20.3101 34.3641 20.6232 34.2656C21.2489 34.0688 22.1305 33.8059 23.1163 33.5431C25.1064 33.0125 27.457 32.5 29 32.5V31.5C27.3106 31.5 24.844 32.0475 22.8587 32.5768C21.8568 32.844 20.961 33.1111 20.3231 33.3117C20.0044 33.412 19.7483 33.4962 19.5744 33.556C19.4886 33.5856 19.4182 33.6107 19.3693 33.6295C19.3487 33.6375 19.317 33.6499 19.2881 33.6639C19.28 33.6679 19.266 33.6749 19.2497 33.6843C19.2423 33.6887 19.1975 33.714 19.1513 33.7585C19.1335 33.7758 19.0665 33.8409 19.0272 33.9505C19.0108 34.0063 18.9982 34.1369 19.0062 34.2098C19.0266 34.2863 19.0973 34.4185 19.1438 34.4724C19.2514 34.5804 19.3734 34.6047 19.4017 34.6103C19.4467 34.6192 19.4832 34.6199 19.5 34.6199V33.6199ZM36.7502 40C32.8617 40 28.6316 38.4448 25.3399 36.8595C23.7012 36.0702 22.3094 35.2807 21.3278 34.6887C20.8372 34.3928 20.4495 34.1465 20.1853 33.9748C20.0533 33.889 19.9521 33.8218 19.8843 33.7763C19.8504 33.7536 19.8249 33.7363 19.8081 33.7249C19.7997 33.7192 19.7934 33.7149 19.7894 33.7121C19.7874 33.7107 19.7859 33.7097 19.785 33.7091C19.7846 33.7088 19.7843 33.7086 19.7841 33.7085C19.784 33.7084 19.784 33.7084 19.7839 33.7084C19.784 33.7084 19.784 33.7084 19.5 34.1199C19.216 34.5314 19.2161 34.5315 19.2163 34.5316C19.2164 34.5317 19.2165 34.5318 19.2167 34.5319C19.2171 34.5322 19.2177 34.5326 19.2183 34.533C19.2197 34.534 19.2216 34.5353 19.224 34.537C19.229 34.5403 19.2361 34.5452 19.2454 34.5516C19.2641 34.5643 19.2915 34.5828 19.3272 34.6068C19.3988 34.6548 19.5041 34.7247 19.6404 34.8133C19.913 34.9905 20.3102 35.2427 20.8113 35.545C21.8132 36.1492 23.2329 36.9547 24.906 37.7604C28.2381 39.3652 32.6331 41 36.7502 41V40Z" fill="#D82121"/>
    <path d="M14.5 26C14.5 26 17.5 21 23 19.5" stroke="#D82121" stroke-linecap="round" stroke-linejoin="round"/>
    <path d="M45.5 51.5C45.5 51.5 49.5 50.5 53.5 47" stroke="#D82121" stroke-linecap="round" stroke-linejoin="round"/>
</svg>
