<svg width="60" height="73" viewBox="0 0 60 73" fill="none" xmlns="http://www.w3.org/2000/svg">
    <rect width="60" height="72.8571" fill="black" fill-opacity="0"/>
    <path d="M58.3334 30.3571L58.6961 30.7012C58.8219 30.5687 58.8653 30.378 58.8094 30.204C58.7534 30.03 58.607 29.9004 58.4275 29.866L58.3334 30.3571ZM49.4142 22.8897L49.8245 22.6038V22.6038L49.4142 22.8897ZM53.5947 38.678L54.049 38.8868L53.5947 38.678ZM5.02319 36.9395L4.57304 37.1571L4.57304 37.1571L5.02319 36.9395ZM1.66669 30.8631L1.45948 30.408C1.3188 30.4721 1.21566 30.5976 1.1801 30.748C1.14454 30.8985 1.18056 31.0569 1.27767 31.1772L1.66669 30.8631ZM9.52515 23.5477L9.91489 23.861L9.9149 23.861L9.52515 23.5477ZM18.3334 16.1904L18.4444 16.678L18.4444 16.678L18.3334 16.1904ZM26.1036 16.8162L25.9085 17.2765L25.9085 17.2765L26.1036 16.8162ZM29.8663 17.7504L29.866 18.2504L29.8665 18.2504L29.8663 17.7504ZM33.7844 16.6344L33.9922 17.0892L33.9922 17.0892L33.7844 16.6344ZM42.5 16.1904L42.3226 16.6579V16.6579L42.5 16.1904ZM45 34.526L45.3093 34.9189C45.4469 34.8106 45.5178 34.6382 45.4962 34.4644C45.4746 34.2906 45.3637 34.1408 45.2038 34.0694L45 34.526ZM34.335 33.3363L34.1073 32.8911L34.1073 32.8911L34.335 33.3363ZM27.135 33.3363L27.3831 32.9022L27.3831 32.9022L27.135 33.3363ZM16.25 34.526L16.5712 34.1428C16.4811 34.0674 16.3674 34.026 16.25 34.026V34.526ZM58.4275 29.866C54.3682 29.0878 52.1429 25.9316 49.8245 22.6038L49.004 23.1755C51.28 26.4424 53.7194 29.9816 58.2392 30.8481L58.4275 29.866ZM54.049 38.8868C55.6273 35.452 56.9918 32.4972 58.6961 30.7012L57.9707 30.0129C56.1261 31.9567 54.6913 35.094 53.1403 38.4692L54.049 38.8868ZM29.8528 58.6845C37.387 58.6845 42.463 55.8973 46.146 52.0021C49.8057 48.1316 52.0774 43.1773 54.049 38.8868L53.1403 38.4692C51.1572 42.785 48.9473 47.5839 45.4193 51.3151C41.9147 55.0216 37.0971 57.6845 29.8528 57.6845V58.6845ZM4.57304 37.1571C6.61514 41.381 9.21142 46.7586 13.1439 51.0737C17.0923 55.4061 22.4029 58.6845 29.8528 58.6845V57.6845C22.7442 57.6845 17.6865 54.5735 13.883 50.4001C10.0637 46.2092 7.52445 40.9644 5.47335 36.7218L4.57304 37.1571ZM1.27767 31.1772C2.27639 32.4141 3.30687 34.538 4.57304 37.1571L5.47335 36.7218C4.23122 34.1525 3.14475 31.8977 2.05571 30.5489L1.27767 31.1772ZM9.1354 23.2345C6.77062 26.1772 4.45297 29.0449 1.45948 30.408L1.87389 31.3181C5.12516 29.8377 7.58986 26.7542 9.91489 23.861L9.1354 23.2345ZM18.2224 15.7029C16.3325 16.1332 14.7195 17.2062 13.2581 18.5632C11.8001 19.917 10.4611 21.5849 9.1354 23.2345L9.9149 23.861C11.251 22.1983 12.5439 20.591 13.9385 19.296C15.3297 18.0041 16.79 17.0546 18.4444 16.678L18.2224 15.7029ZM26.2988 16.3558C25.4066 15.9776 24.435 15.5638 23.1575 15.3751C21.8774 15.1861 20.3179 15.2258 18.2224 15.7029L18.4444 16.678C20.444 16.2227 21.8767 16.1968 23.0114 16.3644C24.1489 16.5324 25.0148 16.8977 25.9085 17.2765L26.2988 16.3558ZM29.8665 17.2504C28.4163 17.2497 27.4178 16.8302 26.2988 16.3558L25.9085 17.2765C27.0324 17.7529 28.1953 18.2496 29.866 18.2504L29.8665 17.2504ZM33.5765 16.1797C32.32 16.7539 31.22 17.2497 29.866 17.2504L29.8665 18.2504C31.4684 18.2496 32.7572 17.6536 33.9922 17.0892L33.5765 16.1797ZM42.6774 15.723C40.4948 14.8947 38.7727 14.743 37.2996 14.9439C35.8374 15.1432 34.6537 15.6873 33.5765 16.1797L33.9922 17.0892C35.0795 16.5922 36.138 16.1114 37.4347 15.9347C38.7203 15.7594 40.2738 15.8805 42.3226 16.6579L42.6774 15.723ZM49.8245 22.6038C47.9026 19.8453 45.9019 16.9466 42.6774 15.723L42.3226 16.6579C45.2069 17.7524 47.041 20.3579 49.004 23.1755L49.8245 22.6038ZM45 34.526C44.6907 34.1332 44.6907 34.1331 44.6908 34.1331C44.6907 34.1332 44.6907 34.1332 44.6906 34.1332C44.6905 34.1334 44.6902 34.1336 44.6898 34.1339C44.689 34.1345 44.6877 34.1355 44.6859 34.1369C44.6823 34.1398 44.6768 34.1441 44.6693 34.1499C44.6544 34.1615 44.6318 34.179 44.6018 34.202C44.5419 34.248 44.4526 34.316 44.3363 34.4029C44.1037 34.5766 43.7635 34.8258 43.3356 35.1251C42.4794 35.7241 41.2744 36.5224 39.8798 37.32C37.0671 38.9288 33.572 40.4821 30.6252 40.4821V41.4821C33.853 41.4821 37.5453 39.8073 40.3763 38.1881C41.8036 37.3717 43.0346 36.556 43.9088 35.9445C44.3462 35.6386 44.6949 35.3833 44.9348 35.204C45.0549 35.1143 45.1477 35.0436 45.211 34.9951C45.2426 34.9708 45.2668 34.952 45.2833 34.9392C45.2915 34.9328 45.2978 34.9279 45.3022 34.9244C45.3044 34.9227 45.306 34.9214 45.3072 34.9205C45.3078 34.92 45.3083 34.9197 45.3086 34.9194C45.3088 34.9193 45.309 34.9191 45.3091 34.9191C45.3092 34.919 45.3093 34.9189 45 34.526ZM37.5 32.8809C38.7532 32.8809 40.5561 33.3889 42.0955 33.9256C42.8544 34.1902 43.531 34.455 44.018 34.6538C44.2613 34.7531 44.4568 34.8357 44.591 34.8933C44.6582 34.9221 44.7099 34.9447 44.7447 34.9599C44.7621 34.9675 44.7752 34.9733 44.7839 34.9771C44.7882 34.979 44.7914 34.9805 44.7935 34.9814C44.7945 34.9818 44.7953 34.9822 44.7957 34.9824C44.7959 34.9825 44.7961 34.9826 44.7962 34.9826C44.7962 34.9826 44.7962 34.9826 44.7963 34.9826C44.7962 34.9826 44.7962 34.9826 45 34.526C45.2038 34.0694 45.2037 34.0694 45.2036 34.0694C45.2036 34.0693 45.2035 34.0693 45.2034 34.0693C45.2032 34.0692 45.2029 34.069 45.2025 34.0689C45.2018 34.0686 45.2008 34.0681 45.1995 34.0675C45.197 34.0664 45.1932 34.0647 45.1884 34.0626C45.1787 34.0583 45.1645 34.0521 45.146 34.044C45.1091 34.0278 45.055 34.0042 44.9854 33.9744C44.8463 33.9147 44.6453 33.8297 44.3959 33.7279C43.8974 33.5245 43.2041 33.253 42.4247 32.9813C40.8875 32.4454 38.9404 31.8809 37.5 31.8809V32.8809ZM34.5626 33.7815C35.5166 33.2937 36.3368 32.8809 37.5 32.8809V31.8809C36.0705 31.8809 35.0561 32.406 34.1073 32.8911L34.5626 33.7815ZM30.6252 34.9047C32.3747 34.9047 33.5319 34.3085 34.5626 33.7815L34.1073 32.8911C33.0883 33.4122 32.1167 33.9047 30.6252 33.9047V34.9047ZM26.8869 33.7704C27.8176 34.3023 28.8666 34.9047 30.6252 34.9047V33.9047C29.1423 33.9047 28.2864 33.4184 27.3831 32.9022L26.8869 33.7704ZM24.1667 32.8809C25.3202 32.8809 26.0402 33.2866 26.8869 33.7704L27.3831 32.9022C26.5273 32.4132 25.606 31.8809 24.1667 31.8809V32.8809ZM16.25 34.026C16.2696 34.026 16.3127 34.027 16.3658 34.0398C16.408 34.0499 16.5337 34.0851 16.635 34.2086C16.7626 34.3643 16.7635 34.5459 16.7278 34.6667C16.6989 34.7647 16.6474 34.8276 16.6289 34.8492C16.5875 34.8977 16.5463 34.9261 16.5395 34.9309C16.5252 34.941 16.5137 34.9479 16.5089 34.9508C16.4936 34.9598 16.4867 34.9623 16.5027 34.9548C16.5267 34.9436 16.5719 34.9238 16.6403 34.8952C16.7746 34.8391 16.9794 34.7572 17.2394 34.6579C17.759 34.4595 18.4913 34.1943 19.3103 33.9291C20.9708 33.3916 22.9084 32.8809 24.1667 32.8809V31.8809C22.7313 31.8809 20.6547 32.4428 19.0023 32.9778C18.1647 33.2489 17.416 33.52 16.8826 33.7238C16.6161 33.8255 16.4014 33.9113 16.2549 33.9725C16.1828 34.0026 16.1222 34.0288 16.079 34.049C16.0615 34.0572 16.0307 34.0719 16.0016 34.089C15.9933 34.0939 15.979 34.1025 15.9625 34.1142C15.9535 34.1205 15.9108 34.1502 15.8685 34.1997C15.8496 34.2219 15.7978 34.2852 15.7688 34.3836C15.733 34.5048 15.7339 34.6867 15.8617 34.8426C15.9632 34.9664 16.0893 35.0018 16.1321 35.0121C16.1857 35.025 16.2295 35.026 16.25 35.026V34.026ZM30.6252 40.4821C27.4276 40.4821 23.93 38.9259 21.1882 37.3224C19.8265 36.5261 18.6696 35.7292 17.8534 35.1314C17.4455 34.8327 17.1233 34.5842 16.9038 34.4109C16.7941 34.3243 16.7101 34.2566 16.6539 34.2109C16.6258 34.188 16.6047 34.1706 16.5908 34.1591C16.5839 34.1534 16.5788 34.1491 16.5755 34.1464C16.5738 34.145 16.5726 34.144 16.5719 34.1434C16.5716 34.1431 16.5713 34.1429 16.5712 34.1428C16.5711 34.1428 16.5711 34.1428 16.5711 34.1427C16.5711 34.1428 16.5712 34.1428 16.25 34.526C15.9288 34.9092 15.929 34.9093 15.9291 34.9094C15.9292 34.9095 15.9293 34.9097 15.9295 34.9098C15.9299 34.9101 15.9303 34.9105 15.9309 34.911C15.932 34.9119 15.9337 34.9133 15.9357 34.915C15.9399 34.9185 15.9459 34.9235 15.9538 34.9299C15.9694 34.9429 15.9924 34.9618 16.0224 34.9862C16.0823 35.035 16.1703 35.106 16.2843 35.1959C16.5122 35.3758 16.8439 35.6316 17.2625 35.9382C18.0992 36.5509 19.2852 37.368 20.6834 38.1857C23.4613 39.8102 27.1513 41.4821 30.6252 41.4821V40.4821Z" fill="#D82121"/>
    <path d="M12.0833 26.3096C12.0833 26.3096 14.5833 21.25 19.1666 19.7322" stroke="#D82121" stroke-linecap="round" stroke-linejoin="round"/>
    <path d="M37.9167 52.1131C37.9167 52.1131 41.25 51.1012 44.5834 47.5596" stroke="#D82121" stroke-linecap="round" stroke-linejoin="round"/>
</svg>
