<svg width="125" height="47" viewBox="0 0 125 47" fill="none" xmlns="http://www.w3.org/2000/svg">
    <path fill-rule="evenodd" clip-rule="evenodd"
          d="M15.489 2.48543C15.0905 2.80894 15 3.26237 15 4V7.5C15 7.57818 14.9192 7.64066 14.8403 7.64098C12.9948 7.65374 10.9967 7.86859 9.37534 8.43187C9.28183 8.46425 9.18536 8.39753 9.18536 8.29939V4.4925C9.18536 3.38721 8.96228 2.59233 8.5174 2.10789C8.07184 1.62507 7.45126 1.2561 6.65497 1.00291C5.96179 0.782444 5.44629 0.67548 5.10849 0.681038C5.03024 0.682346 4.96826 0.615944 4.96826 0.539074V0.142292C4.96826 0.0634575 5.0329 0 5.11246 0H39.5C40 0 40 0.5 39.9997 0.5L39.9861 9.82895C39.9963 10.0013 39.7448 10.038 39.7033 9.87017C38.9684 6.89544 37.8051 4.98082 36 3.5C34.547 2.29657 31.7006 2 28 2H17C16.3904 2 15.8864 2.16192 15.489 2.48543ZM35.8231 42.4211C34.558 43.5879 31.8415 44 28 44H17C16.3433 44 15.978 44 15.489 43.5C15 43 15 42.5 15 42V24.5L28.7911 24.5479C29.0278 24.5479 29.2224 24.3569 29.2201 24.1234C29.2015 22.3292 28.9536 20.6704 28.4792 19.1451C27.7989 16.959 26.6516 15.0481 25.0335 13.4151C22.2372 10.5938 18.886 9.16633 14.9828 9.12708C14.957 9.12679 14.9312 9.12598 14.9055 9.12518L14.8627 9.12393L14.8385 9.12342L14.8078 9.12315C12.7193 9.12315 10.7876 9.45974 9.01071 10.1267C7.24509 10.8307 5.64194 11.9029 4.20352 13.3494C1.40094 16.1671 0 19.4944 0 23.3311C0 27.4317 1.38403 30.8628 4.1528 33.6252C5.3111 34.7809 6.26584 35.4976 7.14963 35.9542C7.43637 36.1027 7.77948 35.8983 7.77948 35.579V30.1353C7.77948 29.9112 7.69098 29.6966 7.5365 29.5327C6.17532 28.0853 5.77719 27.1821 5.29153 24.5479C5.29153 24.5479 5.11716 21.4937 5.89453 19.9766C6.67194 18.4595 7.72842 16.9289 9.01071 16.0022C10.5937 14.9251 12.5257 14.3853 14.8078 14.3853C14.8668 14.3853 14.9245 14.3873 14.9828 14.388C18.4265 14.4413 21.0696 16.1668 22.9102 19.5661C23.0109 19.7516 22.7135 20 22.5 20H15V16C12.5 16 10.5 17 9.01071 18V42C9.01071 43.1063 9 44.5 8.5 45C8 45.5 7.5 46 7 46C6.90833 46 6.79404 46.0015 6.6665 46.0038L6.54294 46.0061L6.40295 46.0088C5.86734 46.0195 5.22815 46.0322 5 46V47H40L39.9997 35.3707C40.011 35.1462 39.6911 35.0874 39.6215 35.3013C39.4686 35.7687 39.2803 36.3016 39.0559 36.8999C38.1652 39.4144 37.0881 41.2553 35.8231 42.4211ZM23.7783 28.8143C23.5619 28.6537 23.2585 28.6906 23.0815 28.8928C20.942 31.3376 18.696 32.4769 16.2137 32.5724C16.1848 32.5734 16.204 36.1696 16.2113 37.3871C16.2123 37.6014 16.4009 37.7708 16.6174 37.7512C21.1707 37.3371 24.3604 35.7002 27.3467 32.0579C27.5121 31.8561 27.4723 31.5561 27.2621 31.4001L23.7783 28.8143ZM55.688 19.692H60.428V21H54.128V12.6H60.26V13.908H55.688V16.092H59.744V17.376H55.688V19.692ZM63.728 13.908H68.3V12.6H62.168V21H63.728V17.784H67.784V16.464H63.728V13.908ZM76.988 21H75.308L73.592 18.54C73.484 18.552 73.376 18.552 73.268 18.552H71.372V21H69.812V12.6H73.268C75.476 12.6 76.844 13.728 76.844 15.588C76.844 16.86 76.196 17.796 75.056 18.24L76.988 21ZM73.196 13.92C74.564 13.92 75.272 14.532 75.272 15.588C75.272 16.644 74.564 17.268 73.196 17.268H71.372V13.92H73.196ZM84.884 19.692H80.144V17.376H84.2V16.092H80.144V13.908H84.716V12.6H78.584V21H84.884V19.692ZM95.816 21H94.34L94.328 15.432L91.568 20.04H90.872L88.112 15.504V21H86.624V12.6H87.908L91.244 18.168L94.52 12.6H95.804L95.816 21ZM97.484 16.8C97.484 19.284 99.404 21.12 102.008 21.12C104.612 21.12 106.532 19.296 106.532 16.8C106.532 14.304 104.612 12.48 102.008 12.48C99.404 12.48 97.484 14.316 97.484 16.8ZM102.008 19.752C103.7 19.752 104.96 18.516 104.96 16.8C104.96 15.084 103.7 13.848 102.008 13.848C100.316 13.848 99.056 15.084 99.056 16.8C99.056 18.516 100.316 19.752 102.008 19.752ZM114.308 12.6H115.868L112.208 21H110.672L107 12.6H108.692L111.488 19.08L114.308 12.6ZM122.384 19.056L123.224 21H124.856L121.064 12.6H119.528L115.748 21H117.356L118.184 19.056H122.384ZM118.712 17.832H121.868L120.284 14.16L118.712 17.832ZM60.428 34.692H55.688V32.376H59.744V31.092H55.688V28.908H60.26V27.6H54.128V36H60.428V34.692ZM68.288 27.6H69.848L66.188 36H64.652L60.98 27.6H62.672L65.468 34.08L68.288 27.6ZM77.216 34.692H72.476V32.376H76.532V31.092H72.476V28.908H77.048V27.6H70.916V36H77.216V34.692ZM84.872 27.6H86.42V36H85.136L80.504 30.312V36H78.956V27.6H80.24L84.872 33.288V27.6ZM90.38 28.92V36H91.94V28.92H94.724V27.6H87.596V28.92H90.38Z"
          fill="url(#paint0_radial)"/>
    <defs>
        <radialGradient id="paint0_radial" cx="0" cy="0" r="1" gradientUnits="userSpaceOnUse"
                        gradientTransform="translate(52.5195 17.7227) rotate(9.90673) scale(98.8569 43.8848)">
            <stop stop-color="#D82121"/>
            <stop offset="0.53904" stop-color="#A72344"/>
            <stop offset="1" stop-color="#902A2A"/>
        </radialGradient>
    </defs>
</svg>
