<svg width="72" height="72" viewBox="0 0 72 72" fill="none" xmlns="http://www.w3.org/2000/svg">
    <rect width="72" height="72" fill="black" fill-opacity="0"/>
    <path fill-rule="evenodd" clip-rule="evenodd" d="M1.5 1.5C1.5 1.5 4.5 70.5 34.5 70.5C64.5 70.5 70.5 1.5 70.5 1.5C70.5 1.5 53.5 9 34.5 9C15.5 9 1.5 1.5 1.5 1.5Z" stroke="#D82121" stroke-linecap="round" stroke-linejoin="round"/>
    <path fill-rule="evenodd" clip-rule="evenodd" d="M19 29.5C19 29.5 20 24 25 24.5C30 25 30.5 30.5 30.5 30.5C24 28 19 29.5 19 29.5Z" stroke="#D82121" stroke-linecap="round" stroke-linejoin="round"/>
    <path fill-rule="evenodd" clip-rule="evenodd" d="M52.5 29.5C52.5 29.5 51.5 24 46.5 24.5C41.5 25 41 30.5 41 30.5C47.5 28 52.5 29.5 52.5 29.5Z" stroke="#D82121" stroke-linecap="round" stroke-linejoin="round"/>
    <path fill-rule="evenodd" clip-rule="evenodd" d="M24.5 43C24.5 43 30 46.5 36.0434 46.5C41 46.5 46.5 43 46.5 43C46.5 43 43 51.5 36.0434 51.5C29.0867 51.5 24.5 43 24.5 43Z" stroke="#D82121" stroke-linecap="round" stroke-linejoin="round"/>
    <path d="M65 7C65 7 65.5 14 63 23.5" stroke="#D82121" stroke-linecap="round" stroke-linejoin="round"/>
    <path d="M10.5 36C10.5 36 7.50002 23.5 8.00002 12.5" stroke="#D82121" stroke-linecap="round" stroke-linejoin="round"/>
</svg>
