<svg width="60" height="73" viewBox="0 0 60 73" fill="none" xmlns="http://www.w3.org/2000/svg">
    <rect width="60" height="72.8571" fill="black" fill-opacity="0"/>
    <path fill-rule="evenodd" clip-rule="evenodd" d="M1.25 1.51782C1.25 1.51782 3.75 71.3393 28.75 71.3393C53.75 71.3393 58.75 1.51782 58.75 1.51782C58.75 1.51782 44.5833 9.10711 28.75 9.10711C12.9167 9.10711 1.25 1.51782 1.25 1.51782Z" stroke="#D82121" stroke-linecap="round" stroke-linejoin="round"/>
    <path fill-rule="evenodd" clip-rule="evenodd" d="M15.8334 29.8511C15.8334 29.8511 16.6667 24.2857 20.8334 24.7916C25 25.2976 25.4167 30.863 25.4167 30.863C20 28.3333 15.8334 29.8511 15.8334 29.8511Z" stroke="#D82121" stroke-linecap="round" stroke-linejoin="round"/>
    <path fill-rule="evenodd" clip-rule="evenodd" d="M43.75 29.8511C43.75 29.8511 42.9167 24.2857 38.75 24.7916C34.5834 25.2976 34.1667 30.863 34.1667 30.863C39.5834 28.3333 43.75 29.8511 43.75 29.8511Z" stroke="#D82121" stroke-linecap="round" stroke-linejoin="round"/>
    <path fill-rule="evenodd" clip-rule="evenodd" d="M20.4167 43.512C20.4167 43.512 25 47.0536 30.0361 47.0536C34.1667 47.0536 38.75 43.512 38.75 43.512C38.75 43.512 35.8334 52.1132 30.0361 52.1132C24.2389 52.1132 20.4167 43.512 20.4167 43.512Z" stroke="#D82121" stroke-linecap="round" stroke-linejoin="round"/>
    <path d="M54.1667 7.08337C54.1667 7.08337 54.5833 14.1667 52.5 23.7798" stroke="#D82121" stroke-linecap="round" stroke-linejoin="round"/>
    <path d="M8.74997 36.4286C8.74997 36.4286 6.24997 23.7798 6.66664 12.6488" stroke="#D82121" stroke-linecap="round" stroke-linejoin="round"/>
</svg>
