<svg width="72" height="72" viewBox="0 0 72 72" fill="none" xmlns="http://www.w3.org/2000/svg">
    <rect width="72" height="72" fill="black" fill-opacity="0"/>
    <path fill-rule="evenodd" clip-rule="evenodd" d="M34.0813 56.3061C35.2261 58.0926 37.7739 58.0926 38.9187 56.3061C43.721 48.8124 54 31.9073 54 24.5C54 14.835 46.165 7 36.5 7C26.835 7 19 14.835 19 24.5C19 31.9073 29.279 48.8124 34.0813 56.3061Z" stroke="#D82121" stroke-linecap="round" stroke-linejoin="round"/>
    <path fill-rule="evenodd" clip-rule="evenodd" d="M36.5 32C40.0899 32 43 29.0899 43 25.5C43 21.9101 40.0899 19 36.5 19C32.9101 19 30 21.9101 30 25.5C30 29.0899 32.9101 32 36.5 32Z" stroke="#D82121" stroke-linecap="round" stroke-linejoin="round"/>
    <path d="M31.5 52.5C31.5 52.5 10.5 54 10.5 59C10.5 64 22 66.5 36.5 66.5C51 66.5 61.5 64 61.5 59C61.5 54 41.5 52.5 41.5 52.5" stroke="#D82121" stroke-linecap="round" stroke-linejoin="round"/>
    <path d="M33.5 55.5C33.5 55.5 18.5 56.5 18.5 59C18.5 61.5 27.8284 63.5 36.5 63.5C45.1716 63.5 54.5 61.5 54.5 59C54.5 56.5 39.5 55.5 39.5 55.5" stroke="#D82121" stroke-linecap="round" stroke-linejoin="round"/>
    <path d="M45 14.5C45 14.5 50.5 17 50 23" stroke="#D82121" stroke-linecap="round" stroke-linejoin="round"/>
</svg>
