<svg width="60" height="73" viewBox="0 0 60 73" fill="none" xmlns="http://www.w3.org/2000/svg">
    <rect width="60" height="72.8571" fill="black" fill-opacity="0"/>
    <path d="M54.4875 5.93493C51.7851 2.65492 48.243 1.01196 44.6997 1.01196C41.1575 1.01196 37.6154 2.65344 34.9142 5.93493C29.5094 12.4979 29.5094 23.141 34.9142 29.704C37.6166 32.9855 41.1587 34.6269 44.6997 34.6269C48.2406 34.6269 51.7851 32.9855 54.4875 29.704C59.8923 23.1425 59.8923 12.4994 54.4875 5.93493Z" stroke="#D82121" stroke-linecap="round" stroke-linejoin="round"/>
    <path d="M28.11 23.7037L28.5885 23.559C28.534 23.3787 28.3828 23.2444 28.1974 23.2114C28.012 23.1785 27.8238 23.2525 27.7105 23.403L28.11 23.7037ZM28.3952 24.6467L28.8745 24.5041L28.8738 24.5019L28.3952 24.6467ZM27.5172 24.4908L27.1178 24.1901L27.1178 24.1901L27.5172 24.4908ZM0.850555 59.9076L1.24998 60.2084L1.24999 60.2083L0.850555 59.9076ZM0.613678 60.2222L0.214255 59.9214C0.0752743 60.106 0.0808506 60.3617 0.227744 60.5401L0.613678 60.2222ZM0.864044 60.5261L1.25001 60.2083L1.24998 60.2082L0.864044 60.5261ZM2.68561 62.738L3.07157 63.0559C3.22362 62.8713 3.22362 62.6048 3.07157 62.4202L2.68561 62.738ZM0.864044 64.95L1.25001 65.2678L1.25001 65.2678L0.864044 64.95ZM0.602264 65.2678L0.216301 64.95C0.0642521 65.1346 0.0642521 65.401 0.216301 65.5857L0.602264 65.2678ZM0.864044 65.5857L1.25001 65.2678L1.25001 65.2678L0.864044 65.5857ZM5.86404 71.6571L5.47808 71.975L5.47809 71.975L5.86404 71.6571ZM6.25 72.1257L5.86405 72.4436C5.95903 72.5589 6.1006 72.6257 6.25 72.6257C6.3994 72.6257 6.54097 72.5589 6.63595 72.4436L6.25 72.1257ZM6.63596 71.6571L7.02191 71.975L7.02191 71.975L6.63596 71.6571ZM8.33334 69.5961L8.71931 69.2782C8.62433 69.1629 8.48275 69.0961 8.33335 69.0961C8.18394 69.0961 8.04236 69.1629 7.94738 69.2782L8.33334 69.5961ZM10.0307 71.6571L10.4167 71.3393L10.4167 71.3392L10.0307 71.6571ZM10.3945 72.0989L10.0085 72.4167C10.1003 72.5281 10.2357 72.5945 10.3799 72.5987C10.5242 72.6029 10.6632 72.5446 10.7613 72.4387L10.3945 72.0989ZM10.7834 71.6791L11.1502 72.0189L11.1502 72.0189L10.7834 71.6791ZM40.7834 39.2981L41.1502 39.6379L41.1502 39.6379L40.7834 39.2981ZM41.2611 38.7825L41.6279 39.1223C41.7379 39.0036 41.7836 38.839 41.7506 38.6806C41.7177 38.5221 41.6101 38.3895 41.4619 38.3245L41.2611 38.7825ZM40.6175 38.5004L40.8183 38.0423L40.8073 38.0378L40.6175 38.5004ZM40.6151 38.4994L40.4109 38.9558C40.4157 38.9579 40.4205 38.96 40.4253 38.962L40.6151 38.4994ZM40.6058 38.4952L40.4012 38.9514L40.4017 38.9516L40.6058 38.4952ZM40.5669 38.4778L40.3607 38.9333L40.3623 38.934L40.5669 38.4778ZM40.4119 38.4064L40.2001 38.8593L40.2004 38.8594L40.4119 38.4064ZM39.8284 38.1226L39.6037 38.5693L39.6038 38.5693L39.8284 38.1226ZM37.8469 37.0286L38.1047 36.6002L38.1047 36.6001L37.8469 37.0286ZM32.8749 33.062L32.5 33.3928L32.5 33.3928L32.8749 33.062ZM29.5342 27.6071L29.0776 27.8108L29.0776 27.8108L29.5342 27.6071ZM28.6793 25.4857L29.1497 25.3164L29.1497 25.3164L28.6793 25.4857ZM28.465 24.865L28.94 24.709L28.9399 24.7087L28.465 24.865ZM28.4119 24.7004L27.9347 24.8497L27.9349 24.8504L28.4119 24.7004ZM28.399 24.6592L27.9208 24.8053L27.9218 24.8085L28.399 24.6592ZM28.396 24.6493L27.9168 24.7919L27.9178 24.7954L28.396 24.6493ZM27.3438 44.1403L26.9577 43.8226L26.9576 43.8226L27.3438 44.1403ZM28.775 42.4008L28.3893 42.0826L28.3889 42.0831L28.775 42.4008ZM23.86 39.91L24.2454 40.2286L24.2461 40.2277L23.86 39.91ZM25.2913 38.1705L25.6774 38.4882L25.6774 38.4881L25.2913 38.1705ZM28.775 38.1705L28.3887 38.4879L28.3888 38.4881L28.775 38.1705ZM27.6314 23.8485L27.9167 24.7915L28.8738 24.5019L28.5885 23.559L27.6314 23.8485ZM27.9167 24.7916L28.5094 24.0045L27.7105 23.403L27.1178 24.1901L27.9167 24.7916ZM1.24999 60.2083L27.9167 24.7916L27.1178 24.1901L0.45112 59.6068L1.24999 60.2083ZM1.0131 60.5229L1.24998 60.2084L0.451133 59.6068L0.214255 59.9214L1.0131 60.5229ZM1.24998 60.2082L0.999612 59.9043L0.227744 60.5401L0.47811 60.844L1.24998 60.2082ZM3.07157 62.4202L1.25001 60.2083L0.478078 60.844L2.29964 63.0559L3.07157 62.4202ZM1.25001 65.2678L3.07157 63.0559L2.29964 62.4202L0.478078 64.6321L1.25001 65.2678ZM0.988227 65.5857L1.25001 65.2678L0.478081 64.6321L0.216301 64.95L0.988227 65.5857ZM1.25001 65.2678L0.988227 64.95L0.216301 65.5857L0.478081 65.9035L1.25001 65.2678ZM6.25001 71.3393L1.25001 65.2678L0.47808 65.9035L5.47808 71.975L6.25001 71.3393ZM6.63595 71.8079L6.25 71.3392L5.47809 71.975L5.86405 72.4436L6.63595 71.8079ZM6.25 71.3392L5.86405 71.8079L6.63595 72.4436L7.02191 71.975L6.25 71.3392ZM7.94738 69.2782L6.25 71.3392L7.02191 71.975L8.7193 69.9139L7.94738 69.2782ZM10.4167 71.3392L8.71931 69.2782L7.94738 69.9139L9.64474 71.975L10.4167 71.3392ZM10.7805 71.781L10.4167 71.3393L9.64473 71.975L10.0085 72.4167L10.7805 71.781ZM10.4167 71.3393L10.0277 71.7591L10.7613 72.4387L11.1502 72.0189L10.4167 71.3393ZM40.4167 38.9583L10.4167 71.3393L11.1502 72.0189L41.1502 39.6379L40.4167 38.9583ZM40.8944 38.4427L40.4167 38.9583L41.1502 39.6379L41.6279 39.1223L40.8944 38.4427ZM40.4168 38.9583L41.0604 39.2404L41.4619 38.3245L40.8182 38.0424L40.4168 38.9583ZM40.4253 38.962L40.4277 38.963L40.8073 38.0378L40.8049 38.0368L40.4253 38.962ZM40.4017 38.9516L40.4109 38.9558L40.8193 38.043L40.81 38.0388L40.4017 38.9516ZM40.3623 38.934L40.4012 38.9514L40.8105 38.039L40.7716 38.0216L40.3623 38.934ZM40.2004 38.8594C40.27 38.8919 40.324 38.9167 40.3607 38.9333L40.7731 38.0223C40.7403 38.0074 40.6898 37.9843 40.6234 37.9533L40.2004 38.8594ZM39.6038 38.5693C39.857 38.6966 40.0602 38.7938 40.2001 38.8593L40.6238 37.9535C40.4917 37.8917 40.2971 37.7985 40.0529 37.6758L39.6038 38.5693ZM37.589 37.457C38.3902 37.9392 39.0971 38.3145 39.6037 38.5693L40.053 37.6759C39.5644 37.4302 38.8802 37.0669 38.1047 36.6002L37.589 37.457ZM32.5 33.3928C34.0076 35.1015 35.9868 36.4928 37.5891 37.457L38.1047 36.6001C36.5415 35.6595 34.6605 34.3299 33.2498 32.7312L32.5 33.3928ZM29.0776 27.8108C29.8466 29.5339 30.9924 31.6842 32.5 33.3928L33.2498 32.7312C31.8388 31.132 30.7418 29.0862 29.9908 27.4033L29.0776 27.8108ZM28.2088 25.655C28.4029 26.1945 28.6932 26.9491 29.0776 27.8108L29.9908 27.4033C29.6183 26.5684 29.3372 25.8373 29.1497 25.3164L28.2088 25.655ZM27.9899 25.021C28.0387 25.1695 28.1118 25.3854 28.2088 25.655L29.1497 25.3164C29.0561 25.0563 28.9861 24.8493 28.94 24.709L27.9899 25.021ZM27.9349 24.8504C27.9472 24.8893 27.9655 24.9469 27.99 25.0213L28.9399 24.7087C28.9169 24.6388 28.8999 24.5855 28.8889 24.5505L27.9349 24.8504ZM27.9218 24.8085L27.9347 24.8497L28.8891 24.5511L28.8762 24.5099L27.9218 24.8085ZM27.9178 24.7954L27.9208 24.8053L28.8772 24.5131L28.8742 24.5032L27.9178 24.7954ZM27.916 24.7894L27.9168 24.7919L28.8752 24.5067L28.8745 24.5041L27.916 24.7894ZM27.7299 44.4579L29.1611 42.7184L28.3889 42.0831L26.9577 43.8226L27.7299 44.4579ZM23.4736 44.4576C24.0412 45.1486 24.8091 45.518 25.6014 45.518C26.3937 45.518 27.1618 45.1487 27.7299 44.4579L26.9576 43.8226C26.5633 44.3021 26.0701 44.518 25.6014 44.518C25.1327 44.518 24.64 44.3022 24.2464 43.8229L23.4736 44.4576ZM23.4747 39.5914C22.3587 40.9413 22.3615 43.1036 23.4736 44.4576L24.2464 43.8229C23.436 42.8363 23.4363 41.2072 24.2454 40.2286L23.4747 39.5914ZM24.9052 37.8528L23.4739 39.5924L24.2461 40.2277L25.6774 38.4882L24.9052 37.8528ZM29.1614 37.8532C28.5938 37.1621 27.8259 36.7928 27.0336 36.7928C26.2414 36.7928 25.4732 37.1621 24.9051 37.8529L25.6774 38.4881C26.0718 38.0087 26.5649 37.7928 27.0336 37.7928C27.5023 37.7928 27.995 38.0086 28.3887 38.4879L29.1614 37.8532ZM29.1608 42.7189C30.2759 41.3666 30.2739 39.2059 29.1612 37.8529L28.3888 38.4881C29.1986 39.4728 29.1991 41.1006 28.3893 42.0826L29.1608 42.7189Z" fill="#D82121"/>
    <path d="M39.1667 7.58923C39.1667 7.58923 34.1667 10.6249 34.5833 20.238" stroke="#D82121" stroke-linecap="round" stroke-linejoin="round"/>
</svg>
