<svg width="72" height="72" viewBox="0 0 72 72" fill="none" xmlns="http://www.w3.org/2000/svg">
    <rect width="72" height="72" fill="black" fill-opacity="0"/>
    <path d="M65.385 5.86505C62.1421 2.62362 57.8916 1 53.6396 1C49.389 1 45.1385 2.62217 41.897 5.86505C35.4113 12.3508 35.4113 22.8687 41.897 29.3545C45.1399 32.5973 49.3905 34.2195 53.6396 34.2195C57.8886 34.2195 62.1421 32.5973 65.385 29.3545C71.8707 22.8701 71.8707 12.3523 65.385 5.86505Z" stroke="#D82121" stroke-width="0.5" stroke-linecap="round" stroke-linejoin="round"/>
    <path d="M1.49988 59.5L1.31537 59.3313C1.22514 59.43 1.22855 59.5822 1.3231 59.6768L1.49988 59.5ZM33.4999 24.5L33.7345 24.4138C33.7045 24.3319 33.6338 24.2716 33.5482 24.2547C33.4625 24.2378 33.3743 24.2669 33.3154 24.3313L33.4999 24.5ZM3.99988 62L4.17665 62.1768C4.27429 62.0791 4.27429 61.9209 4.17665 61.8232L3.99988 62ZM1.49988 64.5L1.3231 64.3232C1.22547 64.4209 1.22547 64.5791 1.3231 64.6768L1.49988 64.5ZM7.49988 70.5L7.3231 70.6768C7.42073 70.7744 7.57902 70.7744 7.67665 70.6768L7.49988 70.5ZM9.99988 68L10.1767 67.8232C10.079 67.7256 9.92073 67.7256 9.8231 67.8232L9.99988 68ZM12.4999 70.5L12.3231 70.6768C12.4167 70.7704 12.567 70.7748 12.666 70.6869L12.4999 70.5ZM48.4999 38.5L48.666 38.6869C48.7319 38.6283 48.762 38.5393 48.7454 38.4528C48.7287 38.3662 48.6677 38.2948 48.5848 38.2648L48.4999 38.5ZM38.9999 33L39.1705 32.8172L39.1705 32.8172L38.9999 33ZM32.8124 43.621L32.6355 43.4443L32.6355 43.4443L32.8124 43.621ZM34.5299 41.902L34.3532 41.7251L34.3531 41.7253L34.5299 41.902ZM28.632 43.621L28.809 43.4445L28.809 43.4444L28.632 43.621ZM28.632 39.4405L28.8084 39.6176L28.8088 39.6172L28.632 39.4405ZM30.3494 37.7215L30.5262 37.8982L30.5263 37.8982L30.3494 37.7215ZM34.5299 37.7215L34.3529 37.898L34.353 37.8982L34.5299 37.7215ZM1.68439 59.6687L33.6844 24.6687L33.3154 24.3313L1.31537 59.3313L1.68439 59.6687ZM4.17665 61.8232L1.67665 59.3232L1.3231 59.6768L3.8231 62.1768L4.17665 61.8232ZM1.67665 64.6768L4.17665 62.1768L3.8231 61.8232L1.3231 64.3232L1.67665 64.6768ZM7.67665 70.3232L1.67665 64.3232L1.3231 64.6768L7.3231 70.6768L7.67665 70.3232ZM9.8231 67.8232L7.3231 70.3232L7.67665 70.6768L10.1767 68.1768L9.8231 67.8232ZM12.6767 70.3232L10.1767 67.8232L9.8231 68.1768L12.3231 70.6768L12.6767 70.3232ZM48.3338 38.3131L12.3338 70.3131L12.666 70.6869L48.666 38.6869L48.3338 38.3131ZM38.8293 33.1828C40.6646 34.8957 43.0647 36.2834 44.9957 37.2404C45.9631 37.7198 46.8166 38.093 47.4287 38.3465C47.7347 38.4733 47.9806 38.5702 48.1503 38.6355C48.2351 38.6682 48.3009 38.6929 48.3457 38.7096C48.3681 38.718 48.3852 38.7243 48.3969 38.7285C48.4027 38.7307 48.4071 38.7323 48.4101 38.7334C48.4117 38.7339 48.4128 38.7344 48.4136 38.7347C48.414 38.7348 48.4144 38.7349 48.4146 38.735C48.4147 38.735 48.4148 38.7351 48.4149 38.7351C48.4149 38.7351 48.415 38.7351 48.4999 38.5C48.5848 38.2648 48.5848 38.2649 48.5848 38.2648C48.5847 38.2648 48.5847 38.2648 48.5846 38.2648C48.5845 38.2648 48.5843 38.2647 48.584 38.2646C48.5834 38.2643 48.5824 38.264 48.5811 38.2635C48.5784 38.2625 48.5744 38.2611 48.5689 38.2591C48.5581 38.2551 48.5418 38.2491 48.5202 38.2411C48.4771 38.225 48.413 38.2009 48.3299 38.1689C48.1638 38.1049 47.9219 38.0096 47.62 37.8845C47.0161 37.6344 46.1731 37.2658 45.2177 36.7924C43.3033 35.8436 40.9535 34.4814 39.1705 32.8172L38.8293 33.1828ZM33.4999 24.5C33.2652 24.5862 33.2652 24.5863 33.2653 24.5863C33.2653 24.5864 33.2653 24.5865 33.2654 24.5866C33.2654 24.5868 33.2656 24.5871 33.2657 24.5875C33.266 24.5883 33.2664 24.5893 33.2669 24.5907C33.2679 24.5934 33.2693 24.5974 33.2713 24.6025C33.2751 24.6128 33.2809 24.628 33.2884 24.6477C33.3035 24.6871 33.3259 24.7449 33.3556 24.8194C33.415 24.9683 33.5037 25.1841 33.6214 25.4533C33.8566 25.9916 34.2079 26.744 34.6732 27.6027C35.6024 29.3175 36.9925 31.4685 38.8293 33.1828L39.1705 32.8172C37.3889 31.1545 36.0291 29.0555 35.1128 27.3645C34.6554 26.5204 34.3102 25.7809 34.0795 25.2531C33.9642 24.9893 33.8776 24.7785 33.82 24.6341C33.7912 24.5619 33.7697 24.5063 33.7554 24.4691C33.7483 24.4504 33.743 24.4364 33.7395 24.4271C33.7378 24.4224 33.7365 24.419 33.7356 24.4168C33.7352 24.4157 33.7349 24.4149 33.7348 24.4144C33.7347 24.4141 33.7346 24.4139 33.7346 24.4138C33.7345 24.4138 33.7345 24.4138 33.7345 24.4138C33.7345 24.4138 33.7345 24.4138 33.4999 24.5ZM32.9892 43.7977L34.7068 42.0787L34.3531 41.7253L32.6355 43.4443L32.9892 43.7977ZM28.4549 43.7975C29.7061 45.052 31.7368 45.0519 32.9893 43.7977L32.6355 43.4443C31.5782 44.5031 29.8647 44.5029 28.809 43.4445L28.4549 43.7975ZM28.4555 39.2634C27.202 40.512 27.2045 42.5439 28.455 43.7975L28.809 43.4444C27.7523 42.3851 27.7518 40.67 28.8084 39.6176L28.4555 39.2634ZM30.1725 37.5448L28.4551 39.2638L28.8088 39.6172L30.5262 37.8982L30.1725 37.5448ZM34.7069 37.545C33.4557 36.2904 31.4251 36.2906 30.1725 37.5448L30.5263 37.8982C31.5837 36.8394 33.2972 36.8395 34.3529 37.898L34.7069 37.545ZM34.7066 42.0789C35.9596 40.8275 35.9576 38.7972 34.7068 37.5448L34.353 37.8982C35.4093 38.9558 35.4103 40.6695 34.3532 41.7251L34.7066 42.0789Z" fill="#D82121"/>
    <path d="M47 7.5C47 7.5 41 10.5 41.5 20" stroke="#D82121" stroke-width="0.5" stroke-linecap="round" stroke-linejoin="round"/>
</svg>
