<svg width="24" height="24" viewBox="0 0 24 24" fill="none" xmlns="http://www.w3.org/2000/svg">
    <path d="M10.5183 16.6934C8.77544 16.5346 7.20396 16.1596 5.85853 15.2403C5.69159 15.126 5.51923 15.0157 5.36689 14.888C4.778 14.3939 4.71866 13.828 5.18464 13.2448C5.58328 12.7458 6.25246 12.6123 6.94802 12.8988C7.0827 12.9544 7.21103 13.0237 7.33394 13.0982C9.84138 14.6033 13.286 14.6448 15.8028 13.1658C16.0522 12.9988 16.3187 12.8626 16.6276 12.7931C17.2283 12.6584 17.7885 12.8511 18.1108 13.3102C18.4791 13.8346 18.4744 14.3464 18.0206 14.7534C17.3246 15.3775 16.4875 15.829 15.5575 16.1442C14.678 16.442 13.7147 16.592 12.7613 16.6916C12.9052 16.8283 12.973 16.8956 13.063 16.9746C14.3575 18.1109 15.6578 19.2424 16.9481 20.3822C17.3877 20.7706 17.4795 21.2521 17.2375 21.7039C16.9728 22.1975 16.3804 22.5223 15.7995 22.4876C15.4315 22.4654 15.1445 22.3053 14.8895 22.0809C13.9125 21.2221 12.9172 20.3791 11.9601 19.5041C11.6815 19.2496 11.5475 19.2978 11.3017 19.5187C10.3189 20.4026 9.32006 21.2729 8.31535 22.1383C7.8642 22.5269 7.32735 22.5968 6.80415 22.3749C6.24799 22.1393 5.89409 21.6434 5.9214 21.145C5.94024 20.8078 6.13002 20.5503 6.39492 20.3193C7.67607 19.2017 8.95368 18.0813 10.2318 16.9618C10.3163 16.8874 10.3952 16.8084 10.5183 16.6934Z" stroke="#D82121" stroke-linecap="round" stroke-linejoin="round"/>
    <path d="M11.7726 12.375L11.7743 11.875H11.7743L11.7726 12.375ZM6.37509 6.92544L6.87509 6.92839L6.87509 6.92836L6.37509 6.92544ZM17.2501 7.00808L17.7501 7.01071L17.7501 7.01049L17.2501 7.00808ZM11.838 1.50002L11.8366 2.00002L11.8366 2.00002L11.838 1.50002ZM14.3507 6.93215L13.8507 6.93388L14.3507 6.93215ZM11.8165 4.40005L11.816 4.90005H11.816L11.8165 4.40005ZM11.8292 9.475L11.8275 8.975H11.8274L11.8292 9.475ZM9.27549 6.96267L8.7755 6.96644L8.7755 6.96649L9.27549 6.96267ZM11.7743 11.875C9.07637 11.8658 6.85914 9.62806 6.87509 6.92839L5.8751 6.92248C5.85589 10.1752 8.51952 12.8639 11.7709 12.875L11.7743 11.875ZM16.7501 7.00545C16.736 9.6942 14.5098 11.8845 11.7743 11.875L11.7708 12.875C15.047 12.8863 17.733 10.2619 17.7501 7.01071L16.7501 7.00545ZM11.8366 2.00002C14.566 2.00743 16.7634 4.23714 16.7501 7.00567L17.7501 7.01049C17.766 3.69845 15.1314 1.00897 11.8393 1.00002L11.8366 2.00002ZM6.87509 6.92836C6.89106 4.19411 9.10814 1.99248 11.8366 2.00002L11.8394 1.00002C8.55807 0.990959 5.89429 3.63894 5.8751 6.92252L6.87509 6.92836ZM14.8507 6.93042C14.8448 5.24682 13.4992 3.90165 11.817 3.90005L11.816 4.90005C12.9463 4.90112 13.8468 5.79936 13.8507 6.93388L14.8507 6.93042ZM11.8309 9.97499C13.514 9.96915 14.8565 8.61486 14.8507 6.93042L13.8507 6.93388C13.8546 8.06731 12.9569 8.97108 11.8275 8.975L11.8309 9.97499ZM8.7755 6.96649C8.78837 8.64787 10.1469 9.98111 11.831 9.97499L11.8274 8.975C10.6893 8.97914 9.78409 8.08484 9.77547 6.95884L8.7755 6.96649ZM11.817 3.90005C10.1194 3.89829 8.76267 5.26751 8.7755 6.96644L9.77547 6.95889C9.76682 5.81383 10.6757 4.89887 11.816 4.90005L11.817 3.90005Z" fill="#D82121"/>
</svg>
