<svg width="33" height="32" viewBox="0 0 33 32" fill="none" xmlns="http://www.w3.org/2000/svg">
    <rect width="31.534" height="32" fill="black" fill-opacity="0" transform="translate(0.766602)"/>
    <rect width="17.7379" height="28" fill="black" fill-opacity="0" transform="translate(7.17188 2)"/>
    <path d="M14.5867 22.2579C12.2967 22.0461 10.2319 21.5461 8.46416 20.3204C8.24481 20.168 8.01834 20.0209 7.81817 19.8506C7.04442 19.1918 6.96646 18.4373 7.57872 17.6598C8.10249 16.9944 8.98174 16.8164 9.89565 17.1985C10.0726 17.2725 10.2412 17.3649 10.4027 17.4642C13.6973 19.471 18.2232 19.5264 21.5301 17.5545C21.8577 17.3317 22.2079 17.1502 22.6138 17.0575C23.4031 16.8778 24.1391 17.1348 24.5626 17.747C25.0465 18.4461 25.0403 19.1285 24.4441 19.6713C23.5296 20.5034 22.4298 21.1054 21.2077 21.5256C20.0522 21.9227 18.7865 22.1227 17.5339 22.2554C17.7229 22.4378 17.812 22.5275 17.9302 22.6328C19.6311 24.1478 21.3395 25.6566 23.0349 27.1763C23.6125 27.6941 23.7332 28.3362 23.4151 28.9385C23.0674 29.5967 22.289 30.0298 21.5258 29.9834C21.0422 29.9538 20.6651 29.7404 20.33 29.4412C19.0464 28.2961 17.7387 27.1722 16.4811 26.0055C16.1151 25.6662 15.939 25.7304 15.616 26.0249C14.3247 27.2035 13.0123 28.3639 11.6922 29.5177C11.0994 30.0358 10.3941 30.1291 9.70662 29.8331C8.97587 29.5191 8.51087 28.8578 8.54676 28.1933C8.57151 27.7438 8.82087 27.4004 9.16892 27.0924C10.8522 25.6023 12.5309 24.1084 14.2102 22.6158C14.3213 22.5165 14.4249 22.4112 14.5867 22.2579Z" stroke="white" stroke-linecap="round" stroke-linejoin="round"/>
    <path d="M16.2345 16.5L16.2327 17H16.2328L16.2345 16.5ZM9.1427 9.23392L9.64269 9.23675L9.64269 9.23672L9.1427 9.23392ZM23.4318 9.34427L23.9318 9.34686L23.9318 9.34668L23.4318 9.34427ZM16.3204 2.00003L16.319 2.50003L16.3191 2.50003L16.3204 2.00003ZM19.6212 9.2427L20.1212 9.24115L20.1212 9.24089L19.6212 9.2427ZM16.2911 5.86673L16.2917 5.36673L16.2917 5.36673L16.2911 5.86673ZM16.3087 12.6333L16.307 12.1333H16.3069L16.3087 12.6333ZM12.9532 9.28372L13.4532 9.28007L13.4532 9.27986L12.9532 9.28372ZM16.2362 16C12.6107 15.9874 9.62175 12.9356 9.64269 9.23675L8.6427 9.23109C8.61872 13.4687 12.0399 16.9854 16.2327 17L16.2362 16ZM22.9318 9.34168C22.9127 13.0272 19.9083 16.0127 16.2362 16L16.2328 17C20.4592 17.0147 23.9098 13.5812 23.9318 9.34686L22.9318 9.34168ZM16.3191 2.50003C19.987 2.50999 22.95 5.55293 22.9318 9.34186L23.9318 9.34668C23.9526 5.02818 20.566 1.51156 16.3218 1.50003L16.3191 2.50003ZM9.64269 9.23672C9.66365 5.49291 12.655 2.4896 16.319 2.50003L16.3219 1.50003C12.0914 1.48799 8.66666 4.95148 8.6427 9.23112L9.64269 9.23672ZM20.1212 9.24089C20.1134 7.09499 18.4232 5.36898 16.2917 5.36673L16.2906 6.36673C17.8563 6.36838 19.1154 7.63358 19.1212 9.24452L20.1212 9.24089ZM16.3104 13.1333C18.442 13.126 20.1279 11.3882 20.1212 9.24115L19.1212 9.24426C19.1262 10.855 17.8707 12.128 16.307 12.1333L16.3104 13.1333ZM12.4533 9.28737C12.4689 11.4301 14.1773 13.1412 16.3106 13.1333L16.3069 12.1333C14.733 12.1391 13.4649 10.8805 13.4532 9.28007L12.4533 9.28737ZM16.2917 5.36673C14.1417 5.36448 12.4365 7.12164 12.4533 9.28758L13.4532 9.27986C13.4407 7.65381 14.712 6.36507 16.2906 6.36673L16.2917 5.36673Z" fill="white"/>
</svg>
