<svg width="30" height="30" viewBox="0 0 30 30" fill="none" xmlns="http://www.w3.org/2000/svg">
    <path d="M20 14.5L20.4056 15.1309C20.6202 14.9929 20.75 14.7552 20.75 14.5C20.75 14.2448 20.6202 14.0071 20.4056 13.8691L20 14.5ZM13 19H12.25C12.25 19.2744 12.3998 19.5268 12.6406 19.6583C12.8814 19.7898 13.1748 19.7792 13.4056 19.6309L13 19ZM13 10L13.4056 9.36912C13.1748 9.22076 12.8814 9.21025 12.6406 9.34172C12.3998 9.47318 12.25 9.72565 12.25 10H13ZM1.75 15C1.75 7.68222 7.68228 1.75 15 1.75V0.25C6.85386 0.25 0.25 6.85379 0.25 15H1.75ZM15 28.25C7.68228 28.25 1.75 22.3178 1.75 15H0.25C0.25 23.1462 6.85386 29.75 15 29.75V28.25ZM28.25 15C28.25 22.3178 22.3177 28.25 15 28.25V29.75C23.1461 29.75 29.75 23.1462 29.75 15H28.25ZM15 1.75C22.3177 1.75 28.25 7.68222 28.25 15H29.75C29.75 6.85379 23.1461 0.25 15 0.25V1.75ZM19.5944 13.8691L12.5944 18.3691L13.4056 19.6309L20.4056 15.1309L19.5944 13.8691ZM12.5944 10.6309L19.5944 15.1309L20.4056 13.8691L13.4056 9.36912L12.5944 10.6309ZM13.75 19V10H12.25V19H13.75Z" fill="#D82121"/>
</svg>
