<svg width="60" height="60" viewBox="0 0 60 60" fill="none" xmlns="http://www.w3.org/2000/svg">
    <mask id="path-1-inside-1" fill="white">
        <path fill-rule="evenodd" clip-rule="evenodd" d="M30 0C13.4315 0 0 13.4315 0 30C0 46.5685 13.4315 60 30 60C46.5685 60 60 46.5685 60 30C60 13.4315 46.5685 0 30 0ZM26.25 36.25L36.875 29.375L26.25 22.5V36.25Z"/>
    </mask>
    <path d="M36.875 29.375L37.4183 30.2146C37.703 30.0303 37.875 29.7142 37.875 29.375C37.875 29.0358 37.703 28.7197 37.4183 28.5354L36.875 29.375ZM26.25 36.25H25.25C25.25 36.6163 25.4503 36.9534 25.7721 37.1284C26.0939 37.3035 26.4857 37.2886 26.7933 37.0896L26.25 36.25ZM26.25 22.5L26.7933 21.6604C26.4857 21.4614 26.0939 21.4465 25.7721 21.6216C25.4503 21.7966 25.25 22.1337 25.25 22.5H26.25ZM1 30C1 13.9837 13.9837 1 30 1V-1C12.8792 -1 -1 12.8792 -1 30H1ZM30 59C13.9837 59 1 46.0163 1 30H-1C-1 47.1208 12.8792 61 30 61V59ZM59 30C59 46.0163 46.0163 59 30 59V61C47.1208 61 61 47.1208 61 30H59ZM30 1C46.0163 1 59 13.9837 59 30H61C61 12.8792 47.1208 -1 30 -1V1ZM36.3317 28.5354L25.7067 35.4104L26.7933 37.0896L37.4183 30.2146L36.3317 28.5354ZM25.7067 23.3396L36.3317 30.2146L37.4183 28.5354L26.7933 21.6604L25.7067 23.3396ZM27.25 36.25V22.5H25.25V36.25H27.25Z" fill="#D82121" mask="url(#path-1-inside-1)"/>
</svg>
