<svg width="24" height="24" viewBox="0 0 24 24" fill="none" xmlns="http://www.w3.org/2000/svg">
    <path d="M22.3886 16.8373C22.3632 16.7824 22.3395 16.7369 22.3175 16.7004C21.9531 16.0432 21.2569 15.2365 20.2291 14.2801L20.2074 14.2582L20.1965 14.2475L20.1855 14.2365H20.1745C19.7081 13.7911 19.4127 13.4917 19.289 13.3384C19.0627 13.0463 19.0119 12.7507 19.1356 12.4512C19.223 12.2249 19.5513 11.747 20.1197 11.0168C20.4187 10.6299 20.6555 10.3197 20.8303 10.0861C22.0914 8.40687 22.6382 7.33383 22.4705 6.86655L22.4053 6.75735C22.3616 6.69161 22.2486 6.63147 22.0666 6.57662C21.8841 6.52189 21.6509 6.51284 21.3666 6.54931L18.2177 6.5711C18.1667 6.55299 18.0939 6.55468 17.999 6.57662C17.9042 6.59856 17.8568 6.60957 17.8568 6.60957L17.802 6.63699L17.7585 6.66994C17.722 6.69173 17.6819 6.73004 17.6382 6.78481C17.5946 6.83939 17.5582 6.90345 17.5291 6.97644C17.1863 7.8598 16.7965 8.68111 16.359 9.44032C16.0893 9.89303 15.8416 10.2854 15.6154 10.6176C15.3895 10.9496 15.2 11.1943 15.047 11.3511C14.8938 11.5081 14.7556 11.6339 14.6314 11.7289C14.5075 11.824 14.4128 11.8641 14.3473 11.8494C14.2816 11.8347 14.2198 11.8202 14.1612 11.8056C14.0592 11.7398 13.9772 11.6504 13.9154 11.5373C13.8532 11.4241 13.8114 11.2817 13.7896 11.1102C13.7678 10.9385 13.7549 10.7908 13.7513 10.6667C13.7478 10.5427 13.7494 10.3673 13.7568 10.141C13.7644 9.91454 13.7678 9.76135 13.7678 9.68103C13.7678 9.40357 13.7732 9.10244 13.784 8.77757C13.7951 8.4527 13.804 8.1953 13.8115 8.00567C13.8189 7.81585 13.8223 7.61502 13.8223 7.4033C13.8223 7.19157 13.8095 7.02553 13.784 6.90502C13.7589 6.78466 13.7204 6.66783 13.6695 6.55457C13.6184 6.44142 13.5436 6.35389 13.4454 6.29176C13.347 6.2297 13.2247 6.18045 13.0791 6.14386C12.6928 6.05629 12.2008 6.00892 11.6029 6.00156C10.2472 5.98698 9.37608 6.07466 8.98975 6.26448C8.83668 6.34469 8.69817 6.45427 8.57432 6.59288C8.44308 6.75356 8.42477 6.84124 8.51952 6.85566C8.95693 6.92128 9.26659 7.07827 9.44885 7.32647L9.51452 7.45799C9.56561 7.55288 9.61662 7.72088 9.66767 7.96175C9.71864 8.20262 9.75154 8.46908 9.76601 8.76096C9.8024 9.29399 9.8024 9.75027 9.76601 10.1298C9.72952 10.5096 9.69505 10.8052 9.66216 11.0169C9.62926 11.2286 9.58009 11.4002 9.51452 11.5315C9.44885 11.6629 9.40515 11.7433 9.38324 11.7724C9.36138 11.8016 9.34315 11.8199 9.32867 11.8271C9.23393 11.8635 9.13539 11.882 9.03341 11.882C8.93127 11.882 8.80743 11.8309 8.66167 11.7286C8.51595 11.6263 8.36472 11.4859 8.20798 11.307C8.05123 11.1281 7.87446 10.878 7.67758 10.5568C7.48085 10.2357 7.27673 9.85605 7.06534 9.41803L6.89044 9.10037C6.7811 8.89601 6.63175 8.59845 6.44222 8.20796C6.25258 7.81731 6.08496 7.43943 5.93924 7.0744C5.88099 6.92109 5.79349 6.80438 5.67688 6.72406L5.62215 6.69111C5.58577 6.66196 5.52737 6.63101 5.44725 6.59802C5.36702 6.56508 5.28331 6.54145 5.19576 6.52691L2.1999 6.5487C1.89376 6.5487 1.68604 6.61816 1.57667 6.75689L1.5329 6.82252C1.51103 6.85907 1.5 6.91745 1.5 6.9978C1.5 7.07812 1.52187 7.17669 1.56564 7.29341C2.00298 8.32287 2.47858 9.3157 2.99244 10.2721C3.50629 11.2284 3.95282 11.9988 4.33176 12.5825C4.71078 13.1666 5.09711 13.7179 5.49076 14.2361C5.8844 14.7544 6.14497 15.0866 6.27246 15.2326C6.4001 15.3788 6.50036 15.4881 6.57323 15.5611L6.84663 15.8239C7.02156 15.9991 7.27846 16.209 7.61741 16.4535C7.95645 16.6982 8.33179 16.939 8.74362 17.1765C9.15554 17.4136 9.63474 17.607 10.1815 17.7567C10.7282 17.9064 11.2603 17.9665 11.7778 17.9375H13.0352C13.2902 17.9155 13.4835 17.8352 13.6148 17.6966L13.6583 17.6417C13.6875 17.5981 13.7149 17.5304 13.7402 17.4393C13.7658 17.3481 13.7785 17.2475 13.7785 17.1382C13.771 16.8243 13.7949 16.5414 13.8494 16.2896C13.9039 16.0378 13.966 15.848 14.0355 15.7202C14.1049 15.5925 14.1833 15.4847 14.2705 15.3973C14.3579 15.3097 14.4201 15.2567 14.4567 15.2384C14.493 15.2201 14.522 15.2076 14.5438 15.2001C14.7188 15.1417 14.9246 15.1983 15.1618 15.37C15.3987 15.5416 15.6209 15.7534 15.8288 16.0052C16.0366 16.2572 16.2862 16.5399 16.5777 16.8537C16.8694 17.1677 17.1244 17.4011 17.343 17.5546L17.5616 17.686C17.7076 17.7737 17.8972 17.854 18.1304 17.927C18.3633 18 18.5674 18.0182 18.7426 17.9818L21.5415 17.938C21.8184 17.938 22.0338 17.8921 22.1866 17.801C22.3397 17.7098 22.4306 17.6093 22.46 17.4999C22.4892 17.3904 22.4908 17.2662 22.4655 17.1274C22.4396 16.9889 22.4141 16.8921 22.3886 16.8373Z" stroke="#D82121"/>
</svg>
