<svg width="35" height="32" viewBox="0 0 35 32" fill="none" xmlns="http://www.w3.org/2000/svg">
    <rect width="34.6408" height="32" fill="black" fill-opacity="0" transform="translate(0.320435)"/>
    <path d="M32.6354 22.4498C32.5987 22.3766 32.5645 22.3159 32.5327 22.2672C32.0068 21.3909 31.0019 20.3154 29.5184 19.0402L29.4871 19.011L29.4714 18.9966L29.4555 18.982H29.4396C28.7664 18.3882 28.34 17.9889 28.1615 17.7845C27.8348 17.3951 27.7616 17.001 27.9402 16.6016C28.0663 16.2999 28.5401 15.6627 29.3605 14.6891C29.792 14.1732 30.1338 13.7596 30.3862 13.4481C32.2065 11.2092 32.9956 9.77845 32.7535 9.1554L32.6595 9.0098C32.5963 8.92215 32.4333 8.84196 32.1705 8.76883C31.9072 8.69585 31.5706 8.68378 31.1602 8.73242L26.6153 8.76146C26.5416 8.73733 26.4365 8.73958 26.2995 8.76883C26.1627 8.79808 26.0943 8.81276 26.0943 8.81276L26.0152 8.84932L25.9524 8.89325C25.8998 8.9223 25.8419 8.97339 25.7787 9.04642C25.7159 9.11919 25.6633 9.2046 25.6213 9.30192C25.1265 10.4797 24.5639 11.5748 23.9325 12.5871C23.5432 13.1907 23.1857 13.7138 22.8592 14.1567C22.5331 14.5995 22.2595 14.9257 22.0388 15.1349C21.8177 15.3442 21.6181 15.5119 21.4389 15.6385C21.26 15.7653 21.1234 15.8188 21.0288 15.7992C20.934 15.7796 20.8448 15.7602 20.7602 15.7408C20.613 15.6531 20.4946 15.5339 20.4054 15.383C20.3157 15.2322 20.2554 15.0423 20.2238 14.8135C20.1924 14.5846 20.1738 14.3877 20.1685 14.2222C20.1636 14.0569 20.1659 13.823 20.1765 13.5213C20.1875 13.2194 20.1924 13.0151 20.1924 12.908C20.1924 12.5381 20.2002 12.1366 20.2158 11.7034C20.2318 11.2703 20.2446 10.9271 20.2554 10.6742C20.2661 10.4211 20.2711 10.1534 20.2711 9.87106C20.2711 9.58877 20.2525 9.36738 20.2158 9.20669C20.1796 9.04622 20.1239 8.89044 20.0506 8.73942C19.9768 8.58856 19.8688 8.47186 19.727 8.38901C19.585 8.30626 19.4085 8.2406 19.1984 8.19181C18.6407 8.07506 17.9306 8.0119 17.0677 8.00208C15.1109 7.98264 13.8535 8.09955 13.2959 8.35265C13.075 8.45958 12.8751 8.60569 12.6963 8.79051C12.5069 9.00474 12.4805 9.12165 12.6172 9.14088C13.2486 9.22838 13.6955 9.4377 13.9586 9.76863L14.0534 9.94399C14.1271 10.0705 14.2007 10.2945 14.2744 10.6157C14.348 10.9368 14.3955 11.2921 14.4164 11.6813C14.4689 12.392 14.4689 13.0004 14.4164 13.5064C14.3637 14.0127 14.3139 14.4069 14.2664 14.6892C14.219 14.9715 14.148 15.2002 14.0534 15.3754C13.9586 15.5506 13.8955 15.6577 13.8639 15.6965C13.8323 15.7354 13.806 15.7599 13.7851 15.7695C13.6484 15.818 13.5061 15.8427 13.3589 15.8427C13.2115 15.8427 13.0328 15.7745 12.8224 15.6381C12.6121 15.5018 12.3938 15.3145 12.1675 15.076C11.9413 14.8374 11.6861 14.504 11.402 14.0758C11.118 13.6475 10.8234 13.1414 10.5183 12.5574L10.2658 12.1338C10.108 11.8614 9.89247 11.4646 9.61891 10.9439C9.34519 10.4231 9.10325 9.91924 8.89292 9.43253C8.80885 9.22812 8.68255 9.0725 8.51423 8.96541L8.43524 8.92148C8.38273 8.88262 8.29844 8.84135 8.1828 8.79736C8.067 8.75344 7.94617 8.72193 7.81981 8.70255L3.49568 8.7316C3.05381 8.7316 2.754 8.82421 2.59613 9.00919L2.53296 9.09669C2.50139 9.14543 2.48547 9.22326 2.48547 9.3304C2.48547 9.43749 2.51704 9.56892 2.58022 9.72454C3.21146 11.0972 3.89792 12.4209 4.6396 13.6961C5.38129 14.9712 6.0258 15.9984 6.57275 16.7766C7.1198 17.5554 7.67742 18.2905 8.2456 18.9814C8.81377 19.6726 9.18986 20.1155 9.37387 20.3101C9.55811 20.505 9.70282 20.6508 9.80801 20.7481L10.2026 21.0985C10.4551 21.3321 10.8259 21.612 11.3151 21.938C11.8045 22.2642 12.3462 22.5854 12.9407 22.902C13.5352 23.2181 14.2269 23.476 15.016 23.6755C15.8051 23.8752 16.5731 23.9554 17.3201 23.9167H19.135C19.5031 23.8873 19.782 23.7802 19.9715 23.5954L20.0343 23.5222C20.0765 23.4641 20.1161 23.3739 20.1525 23.2524C20.1895 23.1307 20.2078 22.9967 20.2078 22.8509C20.197 22.4324 20.2315 22.0553 20.3102 21.7195C20.3888 21.3838 20.4785 21.1307 20.5788 20.9602C20.679 20.7899 20.7921 20.6462 20.9179 20.5297C21.0441 20.413 21.134 20.3423 21.1867 20.3179C21.2391 20.2934 21.2809 20.2768 21.3125 20.2668C21.565 20.189 21.8622 20.2644 22.2044 20.4933C22.5464 20.7221 22.8672 21.0045 23.1672 21.3402C23.4671 21.6762 23.8274 22.0532 24.2481 22.4716C24.6691 22.8903 25.0373 23.2015 25.3528 23.4062L25.6683 23.5814C25.879 23.6983 26.1526 23.8054 26.4893 23.9027C26.8254 24 27.1199 24.0243 27.3728 23.9757L31.4127 23.9174C31.8123 23.9174 32.1232 23.8562 32.3438 23.7347C32.5648 23.6131 32.696 23.479 32.7384 23.3332C32.7806 23.1873 32.7829 23.0217 32.7464 22.8365C32.709 22.6519 32.6721 22.5227 32.6354 22.4498Z" stroke="white"/>
</svg>
