<svg width="35" height="32" viewBox="0 0 35 32" fill="none" xmlns="http://www.w3.org/2000/svg">
    <rect width="34.6408" height="32" fill="black" fill-opacity="0" transform="translate(0.320435)"/>
    <rect width="29.2281" height="19" fill="black" fill-opacity="0" transform="translate(3.02673 6.5)"/>
    <path d="M31.1156 8.63086L31.4852 8.29415L31.4852 8.29415L31.1156 8.63086ZM30.6311 24L30.3 23.6254L30.2999 23.6254L30.6311 24ZM4.05151 8.73633L3.67095 8.41203L3.67094 8.41204L4.05151 8.73633ZM21.6376 17.1455L21.4135 16.6985L21.4135 16.6985L21.6376 17.1455ZM15.7327 20.106L15.5086 19.659L15.5084 19.6591L15.7327 20.106ZM22.1251 16.3726L22.6251 16.372L22.6251 16.3718L22.1251 16.3726ZM21.6355 15.6006L21.8587 15.1532L21.8584 15.153L21.6355 15.6006ZM15.7306 12.6597L15.5077 13.1072L15.5077 13.1072L15.7306 12.6597ZM14.8407 12.688L14.5894 12.2557L14.5887 12.2561L14.8407 12.688ZM14.8417 20.0791L14.59 20.5112L14.5912 20.5119L14.8417 20.0791ZM15.5295 20.1797L15.6428 20.6667L15.6454 20.6661L15.5295 20.1797ZM31.4852 8.29415C30.3122 7.00646 28.4994 6 24.6772 6V7C28.2953 7 29.8089 7.93885 30.746 8.96757L31.4852 8.29415ZM32.7549 13.5C32.7549 10.9357 32.6922 9.61915 31.4852 8.29415L30.746 8.96757C31.6589 9.96971 31.7549 10.8924 31.7549 13.5H32.7549ZM32.7549 18.1738V13.5H31.7549V18.1738H32.7549ZM30.9622 24.3746C32.3274 23.168 32.7549 21.1439 32.7549 18.1738H31.7549C31.7549 21.1315 31.3069 22.7353 30.3 23.6254L30.9622 24.3746ZM24.6772 26C27.9401 26 29.6662 25.5205 30.9623 24.3746L30.2999 23.6254C29.283 24.5244 27.8663 25 24.6772 25V26ZM10.6044 26H24.6772V25H10.6044V26ZM2.52673 18.8369C2.52673 21.1983 2.74394 23.0684 3.96834 24.3023C5.18864 25.532 7.27687 26 10.6044 26V25C7.28575 25 5.58517 24.5119 4.67817 23.5979C3.77528 22.688 3.52673 21.2265 3.52673 18.8369H2.52673ZM2.52673 14.1631V18.8369H3.52673V14.1631H2.52673ZM3.67094 8.41204C3.07461 9.11187 2.79533 9.95876 2.65982 10.9107C2.52568 11.853 2.52673 12.9482 2.52673 14.1631H3.52673C3.52673 12.9258 3.52779 11.909 3.64984 11.0516C3.77053 10.2038 4.00364 9.56342 4.43209 9.06062L3.67094 8.41204ZM10.6044 6C6.69827 6 4.84299 7.03661 3.67095 8.41203L4.43208 9.06062C5.36208 7.96925 6.90012 7 10.6044 7V6ZM24.6772 6H10.6044V7H24.6772V6ZM21.4135 16.6985L15.5086 19.659L15.9568 20.5529L21.8617 17.5925L21.4135 16.6985ZM21.6251 16.3731C21.6253 16.5005 21.5515 16.6294 21.4135 16.6985L21.8616 17.5925C22.3238 17.3609 22.6257 16.894 22.6251 16.372L21.6251 16.3731ZM21.4123 16.048C21.5508 16.1171 21.6249 16.2461 21.6251 16.3733L22.6251 16.3718C22.6243 15.8496 22.321 15.3839 21.8587 15.1532L21.4123 16.048ZM15.5077 13.1072L21.4126 16.0481L21.8584 15.153L15.9535 12.2121L15.5077 13.1072ZM15.092 13.1202C15.2175 13.0473 15.3766 13.0419 15.5077 13.1072L15.9535 12.2121C15.5219 11.9971 15.0064 12.0133 14.5894 12.2557L15.092 13.1202ZM14.9042 13.4326C14.9042 13.313 14.9692 13.1919 15.0927 13.1198L14.5887 12.2561C14.17 12.5005 13.9042 12.9438 13.9042 13.4326H14.9042ZM14.9042 19.334V13.4326H13.9042V19.334H14.9042ZM15.0933 19.6471C14.9692 19.5748 14.9042 19.4536 14.9042 19.334H13.9042C13.9042 19.8238 14.1709 20.267 14.59 20.5112L15.0933 19.6471ZM15.3121 19.7046C15.2341 19.7046 15.1581 19.6845 15.0921 19.6463L14.5912 20.5119C14.8139 20.6407 15.0635 20.7046 15.3121 20.7046V19.7046ZM15.4163 19.6927C15.3823 19.7006 15.3473 19.7046 15.3121 19.7046V20.7046C15.423 20.7046 15.534 20.692 15.6428 20.6667L15.4163 19.6927ZM15.5084 19.6591C15.4792 19.6738 15.4475 19.6853 15.4137 19.6933L15.6454 20.6661C15.751 20.6409 15.8558 20.6036 15.9569 20.5528L15.5084 19.6591Z" fill="white"/>
</svg>
